<?xml version="1.0" encoding="UTF-8"?>
<!DOCTYPE svg PUBLIC "-//W3C//DTD SVG 1.1//EN" "http://www.w3.org/Graphics/SVG/1.1/DTD/svg11.dtd">
<svg xmlns="http://www.w3.org/2000/svg" version="1.1" width="158px" height="160px" style="shape-rendering:geometricPrecision; text-rendering:geometricPrecision; image-rendering:optimizeQuality; fill-rule:evenodd; clip-rule:evenodd" xmlns:xlink="http://www.w3.org/1999/xlink">
<g><path style="opacity:0.29" fill="#6b7d54" d="M 83.5,11.5 C 74.2977,8.67488 67.2977,11.3415 62.5,19.5C 66.6455,9.44967 73.6455,6.78301 83.5,11.5 Z"/></g>
<g><path style="opacity:0.998" fill="#525350" d="M 83.5,11.5 C 87.9351,15.0367 90.2685,19.7034 90.5,25.5C 88.7376,26.2623 87.7376,27.5956 87.5,29.5C 87.5,30.1667 87.1667,30.5 86.5,30.5C 83.9493,32.5777 82.116,35.2444 81,38.5C 76.0096,52.4501 73.1762,66.7835 72.5,81.5C 75.8333,81.5 79.1667,81.5 82.5,81.5C 82.4407,70.3084 83.774,59.3084 86.5,48.5C 89.0849,44.9977 91.4182,41.3311 93.5,37.5C 97.1867,40.8554 100.853,44.1887 104.5,47.5C 105.08,49.7488 106.413,51.4154 108.5,52.5C 109.338,52.8417 109.672,53.5084 109.5,54.5C 109.427,56.0269 110.094,57.0269 111.5,57.5C 112.338,57.8417 112.672,58.5084 112.5,59.5C 112.66,61.153 113.326,62.4863 114.5,63.5C 115.5,67.5 116.5,71.5 117.5,75.5C 117.77,84.5833 117.103,93.5833 115.5,102.5C 113.707,104.426 112.707,106.759 112.5,109.5C 109.839,112.171 107.506,115.171 105.5,118.5C 109.888,119.41 114.222,120.41 118.5,121.5C 119.444,123.688 121.111,125.021 123.5,125.5C 123.427,127.027 124.094,128.027 125.5,128.5C 126.341,135.465 126.674,142.465 126.5,149.5C 93.5,149.5 60.5,149.5 27.5,149.5C 27.1518,142.045 27.8185,134.712 29.5,127.5C 34.6265,122.105 40.9598,119.105 48.5,118.5C 48.1445,117.478 47.4778,116.811 46.5,116.5C 46.573,114.973 45.9063,113.973 44.5,113.5C 41.9965,106.633 39.3298,99.9662 36.5,93.5C 35.2338,87.3702 35.2338,81.3702 36.5,75.5C 38.7282,70.0167 40.7282,64.3501 42.5,58.5C 42.6596,56.847 43.3263,55.5137 44.5,54.5C 45.9063,54.0269 46.573,53.0269 46.5,51.5C 52.1305,45.3686 57.9638,39.3686 64,33.5C 64.5986,31.4652 64.0986,29.7985 62.5,28.5C 61.1667,25.5 61.1667,22.5 62.5,19.5C 67.2977,11.3415 74.2977,8.67488 83.5,11.5 Z"/></g>
<g><path style="opacity:1" fill="#cacaca" d="M 80.5,15.5 C 77.5,15.5 74.5,15.5 71.5,15.5C 72.7767,14.1024 74.4434,13.4357 76.5,13.5C 78.3545,13.3402 79.6879,14.0069 80.5,15.5 Z"/></g>
<g><path style="opacity:1" fill="#f6f6f6" d="M 71.5,15.5 C 74.5,15.5 77.5,15.5 80.5,15.5C 80.8333,15.5 81.1667,15.5 81.5,15.5C 81.6946,19.9152 81.1946,24.2486 80,28.5C 74.1839,38.7988 68.8506,49.4655 64,60.5C 63.2891,67.2152 63.6224,73.8818 65,80.5C 65.4983,82.5444 66.665,83.8777 68.5,84.5C 68.5,85.1667 68.8333,85.5 69.5,85.5C 74.9753,86.4889 80.642,86.8222 86.5,86.5C 86.5,81.8333 86.5,77.1667 86.5,72.5C 86.4307,67.3867 87.0974,62.3867 88.5,57.5C 90.411,53.767 91.7444,49.767 92.5,45.5C 93.212,44.2613 94.212,43.7613 95.5,44C 99.5025,47.1551 102.503,50.9885 104.5,55.5C 113.282,81.9947 105.615,102.161 81.5,116C 74.3213,116.171 67.3213,116.671 60.5,117.5C 58.1432,117.663 55.8098,117.497 53.5,117C 46.2772,110.054 42.1106,101.554 41,91.5C 38.9561,73.298 44.2894,57.6313 57,44.5C 60.7002,40.4648 64.7002,36.7981 69,33.5C 68.1214,30.3289 67.2881,26.9956 66.5,23.5C 66.6997,19.7382 68.3663,17.0715 71.5,15.5 Z"/></g>
<g><path style="opacity:0.261" fill="#6c7e54" d="M 83.5,11.5 C 89.6366,14.4387 91.9699,19.1053 90.5,25.5C 90.2685,19.7034 87.9351,15.0367 83.5,11.5 Z"/></g>
<g><path style="opacity:0.035" fill="#748958" d="M 90.5,25.5 C 90.2624,27.4044 89.2624,28.7377 87.5,29.5C 87.7376,27.5956 88.7376,26.2623 90.5,25.5 Z"/></g>
<g><path style="opacity:0.569" fill="#697a53" d="M 104.5,47.5 C 100.853,44.1887 97.1867,40.8554 93.5,37.5C 91.4182,41.3311 89.0849,44.9977 86.5,48.5C 87.6096,43.6142 89.7762,39.2809 93,35.5C 97.7199,38.7184 101.553,42.7184 104.5,47.5 Z"/></g>
<g><path style="opacity:1" fill="#d1d1d1" d="M 81.5,15.5 C 85.4868,17.3054 86.9868,20.3054 86,24.5C 80.5711,30.6961 76.7377,37.6961 74.5,45.5C 73.0762,47.5145 72.4095,49.8478 72.5,52.5C 70.7792,60.0278 69.7792,67.6944 69.5,75.5C 68.5233,78.2869 68.19,81.2869 68.5,84.5C 66.665,83.8777 65.4983,82.5444 65,80.5C 63.6224,73.8818 63.2891,67.2152 64,60.5C 68.8506,49.4655 74.1839,38.7988 80,28.5C 81.1946,24.2486 81.6946,19.9152 81.5,15.5 Z"/></g>
<g><path style="opacity:0.306" fill="#6b7d54" d="M 62.5,28.5 C 64.0986,29.7985 64.5986,31.4652 64,33.5C 57.9638,39.3686 52.1305,45.3686 46.5,51.5C 50.7153,44.7771 55.882,38.7771 62,33.5C 62.4935,31.8659 62.6602,30.1992 62.5,28.5 Z"/></g>
<g><path style="opacity:0.196" fill="#6f8255" d="M 86.5,30.5 C 78.1903,46.1032 74.1903,62.7699 74.5,80.5C 76.5,80.5 78.5,80.5 80.5,80.5C 80.9359,69.4091 82.9359,58.7425 86.5,48.5C 83.774,59.3084 82.4407,70.3084 82.5,81.5C 79.1667,81.5 75.8333,81.5 72.5,81.5C 73.1762,66.7835 76.0096,52.4501 81,38.5C 82.116,35.2444 83.9493,32.5777 86.5,30.5 Z"/></g>
<g><path style="opacity:1" fill="#8c8c8c" d="M 74.5,45.5 C 74.5905,48.1522 73.9238,50.4855 72.5,52.5C 72.4095,49.8478 73.0762,47.5145 74.5,45.5 Z"/></g>
<g><path style="opacity:1" fill="#b3b3b3" d="M 92.5,45.5 C 91.7444,49.767 90.411,53.767 88.5,57.5C 88.8606,53.0845 90.1939,49.0845 92.5,45.5 Z"/></g>
<g><path style="opacity:0.478" fill="#6c7d54" d="M 104.5,47.5 C 106.587,48.5846 107.92,50.2512 108.5,52.5C 106.413,51.4154 105.08,49.7488 104.5,47.5 Z"/></g>
<g><path style="opacity:0.153" fill="#738957" d="M 46.5,51.5 C 46.573,53.0269 45.9063,54.0269 44.5,54.5C 44.427,52.9731 45.0937,51.9731 46.5,51.5 Z"/></g>
<g><path style="opacity:0.325" fill="#6b7d53" d="M 109.5,54.5 C 110.906,54.9731 111.573,55.9731 111.5,57.5C 110.094,57.0269 109.427,56.0269 109.5,54.5 Z"/></g>
<g><path style="opacity:0.125" fill="#728757" d="M 112.5,59.5 C 114.104,60.287 114.771,61.6203 114.5,63.5C 113.326,62.4863 112.66,61.153 112.5,59.5 Z"/></g>
<g><path style="opacity:1" fill="#cdcdcd" d="M 104.5,55.5 C 107.621,58.1385 109.788,61.4718 111,65.5C 117.843,84.6119 114.676,101.779 101.5,117C 87.8374,117.5 74.1707,117.667 60.5,117.5C 67.3213,116.671 74.3213,116.171 81.5,116C 105.615,102.161 113.282,81.9947 104.5,55.5 Z"/></g>
<g><path style="opacity:0.2" fill="#6d8055" d="M 114.5,63.5 C 116.806,67.0845 118.139,71.0845 118.5,75.5C 118.167,75.5 117.833,75.5 117.5,75.5C 116.5,71.5 115.5,67.5 114.5,63.5 Z"/></g>
<g><path style="opacity:0.667" fill="#677753" d="M 42.5,58.5 C 40.7282,64.3501 38.7282,70.0167 36.5,75.5C 36.942,69.1677 38.942,63.501 42.5,58.5 Z"/></g>
<g><path style="opacity:1" fill="#838383" d="M 69.5,75.5 C 69.5,78.5 69.5,81.5 69.5,84.5C 74.8333,84.5 80.1667,84.5 85.5,84.5C 80.3595,85.4881 75.0262,85.8214 69.5,85.5C 68.8333,85.5 68.5,85.1667 68.5,84.5C 68.19,81.2869 68.5233,78.2869 69.5,75.5 Z"/></g>
<g><path style="opacity:1" fill="#bebebe" d="M 86.5,72.5 C 86.5,77.1667 86.5,81.8333 86.5,86.5C 80.642,86.8222 74.9753,86.4889 69.5,85.5C 75.0262,85.8214 80.3595,85.4881 85.5,84.5C 85.1832,80.2984 85.5166,76.2984 86.5,72.5 Z"/></g>
<g><path style="opacity:0.498" fill="#687953" d="M 117.5,75.5 C 117.833,75.5 118.167,75.5 118.5,75.5C 120.285,84.8724 119.285,93.8724 115.5,102.5C 117.103,93.5833 117.77,84.5833 117.5,75.5 Z"/></g>
<g><path style="opacity:0.212" fill="#6d7f55" d="M 36.5,93.5 C 39.3298,99.9662 41.9965,106.633 44.5,113.5C 39.6971,107.772 37.0304,101.105 36.5,93.5 Z"/></g>
<g><path style="opacity:0.192" fill="#6e8155" d="M 115.5,102.5 C 115.293,105.241 114.293,107.574 112.5,109.5C 112.707,106.759 113.707,104.426 115.5,102.5 Z"/></g>
<g><path style="opacity:0.078" fill="#778e59" d="M 44.5,113.5 C 45.9063,113.973 46.573,114.973 46.5,116.5C 45.0937,116.027 44.427,115.027 44.5,113.5 Z"/></g>
<g><path style="opacity:0.333" fill="#6b7d54" d="M 112.5,109.5 C 111.193,112.114 109.86,114.78 108.5,117.5C 112.161,118.27 115.495,119.603 118.5,121.5C 114.222,120.41 109.888,119.41 105.5,118.5C 107.506,115.171 109.839,112.171 112.5,109.5 Z"/></g>
<g><path style="opacity:0.169" fill="#6e8255" d="M 46.5,116.5 C 47.4778,116.811 48.1445,117.478 48.5,118.5C 40.9598,119.105 34.6265,122.105 29.5,127.5C 30.2026,125.284 31.5359,123.451 33.5,122C 37.9547,120.029 42.288,118.195 46.5,116.5 Z"/></g>
<g><path style="opacity:1" fill="#cbcbcb" d="M 107.5,122.5 C 110.815,123.329 114.148,124.162 117.5,125C 118.056,125.383 118.389,125.883 118.5,126.5C 115.703,125.759 112.87,125.093 110,124.5C 108.624,124.316 107.791,123.649 107.5,122.5 Z"/></g>
<g><path style="opacity:1" fill="#637051" d="M 118.5,121.5 C 120.795,122.136 122.461,123.469 123.5,125.5C 121.111,125.021 119.444,123.688 118.5,121.5 Z"/></g>
<g><path style="opacity:1" fill="#f8f8f8" d="M 107.5,122.5 C 107.791,123.649 108.624,124.316 110,124.5C 112.87,125.093 115.703,125.759 118.5,126.5C 121.165,128.835 122.498,131.835 122.5,135.5C 122.5,138.5 122.5,141.5 122.5,144.5C 92.5,144.5 62.5,144.5 32.5,144.5C 32.5,141.833 32.5,139.167 32.5,136.5C 32.448,134.097 32.7814,131.764 33.5,129.5C 35.9359,125.396 39.6026,123.229 44.5,123C 65.4898,121.222 86.4898,121.056 107.5,122.5 Z"/></g>
<g><path style="opacity:0.322" fill="#6b7d54" d="M 123.5,125.5 C 124.906,125.973 125.573,126.973 125.5,128.5C 124.094,128.027 123.427,127.027 123.5,125.5 Z"/></g>
<g><path style="opacity:1" fill="#909090" d="M 33.5,129.5 C 32.7814,131.764 32.448,134.097 32.5,136.5C 31.5233,139.287 31.19,142.287 31.5,145.5C 30.3547,141.689 30.1881,137.689 31,133.5C 31.2004,131.68 32.0337,130.347 33.5,129.5 Z"/></g>
<g><path style="opacity:0.679" fill="#6c7d55" d="M 125.5,128.5 C 128.234,135.407 128.901,142.574 127.5,150C 93.9975,150.831 60.6641,150.664 27.5,149.5C 60.5,149.5 93.5,149.5 126.5,149.5C 126.674,142.465 126.341,135.465 125.5,128.5 Z"/></g>
<g><path style="opacity:0.181" fill="#708456" d="M 29.5,127.5 C 27.8185,134.712 27.1518,142.045 27.5,149.5C 26.3493,144.35 26.1826,139.016 27,133.5C 27.2401,131.148 28.0735,129.148 29.5,127.5 Z"/></g>
<g><path style="opacity:1" fill="#d1d1d1" d="M 122.5,135.5 C 123.479,138.625 123.813,141.958 123.5,145.5C 92.8333,145.5 62.1667,145.5 31.5,145.5C 31.19,142.287 31.5233,139.287 32.5,136.5C 32.5,139.167 32.5,141.833 32.5,144.5C 62.5,144.5 92.5,144.5 122.5,144.5C 122.5,141.5 122.5,138.5 122.5,135.5 Z"/></g>
</svg>
