<?xml version="1.0" encoding="UTF-8"?>
<!DOCTYPE svg PUBLIC "-//W3C//DTD SVG 1.1//EN" "http://www.w3.org/Graphics/SVG/1.1/DTD/svg11.dtd">
<svg xmlns="http://www.w3.org/2000/svg" version="1.1" width="162px" height="160px" style="shape-rendering:geometricPrecision; text-rendering:geometricPrecision; image-rendering:optimizeQuality; fill-rule:evenodd; clip-rule:evenodd" xmlns:xlink="http://www.w3.org/1999/xlink">
<g><path style="opacity:0.15" fill="#6e8155" d="M 97.5,45.5 C 96.0813,46.4511 94.4147,46.7845 92.5,46.5C 92.5,44.5 92.5,42.5 92.5,40.5C 95.8333,40.5 99.1667,40.5 102.5,40.5C 102.5,33.8333 102.5,27.1667 102.5,20.5C 98.5,20.5 94.5,20.5 90.5,20.5C 90.5,16.8333 90.5,13.1667 90.5,9.5C 83.8333,9.5 77.1667,9.5 70.5,9.5C 70.5,13.1667 70.5,16.8333 70.5,20.5C 66.8333,20.5 63.1667,20.5 59.5,20.5C 59.5,27.1667 59.5,33.8333 59.5,40.5C 62.8333,40.5 66.1667,40.5 69.5,40.5C 69.6602,42.1992 69.4935,43.8659 69,45.5C 68.2753,46.0585 67.4419,46.3918 66.5,46.5C 57.9693,44.3504 49.3027,43.3504 40.5,43.5C 49.1809,41.9912 57.8476,42.6579 66.5,45.5C 67.3857,44.675 67.719,43.675 67.5,42.5C 64.1934,42.9368 61.1934,42.2702 58.5,40.5C 58.0548,35.5835 57.7215,30.7502 57.5,26C 57.5649,23.7746 57.8982,21.6079 58.5,19.5C 62.1073,18.5108 65.774,18.1774 69.5,18.5C 69.5,14.8333 69.5,11.1667 69.5,7.5C 76.8409,7.33368 84.1742,7.50034 91.5,8C 92.4558,11.3936 92.7892,14.8936 92.5,18.5C 96.1064,18.2108 99.6064,18.5442 103,19.5C 103.5,26.8258 103.666,34.1591 103.5,41.5C 100.121,41.888 96.7879,42.5547 93.5,43.5C 94.3202,45.1112 95.6536,45.7778 97.5,45.5 Z"/></g>
<g><path style="opacity:0.997" fill="#4e4f4c" d="M 97.5,45.5 C 100.553,45.8893 103.22,45.2227 105.5,43.5C 111.863,43.407 118.196,43.7403 124.5,44.5C 125.93,45.5375 127.597,46.2041 129.5,46.5C 130.514,47.6737 131.847,48.3404 133.5,48.5C 135.452,51.1184 137.785,53.4518 140.5,55.5C 141.906,55.9731 142.573,56.9731 142.5,58.5C 143.321,62.1267 144.654,65.46 146.5,68.5C 147.164,70.9779 147.497,73.6445 147.5,76.5C 147.706,80.4687 147.039,84.1354 145.5,87.5C 143.076,90.0078 141.41,93.0078 140.5,96.5C 140.5,97.1667 140.167,97.5 139.5,97.5C 136.757,99.2393 134.757,101.573 133.5,104.5C 130.452,108.215 127.119,111.548 123.5,114.5C 118.605,117.654 118.605,120.321 123.5,122.5C 124.833,124.5 126.5,126.167 128.5,127.5C 130.242,134.684 130.909,142.017 130.5,149.5C 97.5,149.5 64.5,149.5 31.5,149.5C 30.8728,141.948 31.7061,134.615 34,127.5C 36.0396,125.63 37.8729,123.63 39.5,121.5C 40.5,121.5 41.5,121.5 42.5,121.5C 42.7271,119.067 41.7271,117.401 39.5,116.5C 36.2297,111.56 32.2297,107.227 27.5,103.5C 26.1667,102.833 25.1667,101.833 24.5,100.5C 24.2624,98.5956 23.2624,97.2623 21.5,96.5C 20.8333,96.5 20.5,96.1667 20.5,95.5C 11.5632,77.7242 14.2299,62.0575 28.5,48.5C 29.8734,48.6567 31.2068,48.49 32.5,48C 35.1915,46.3952 37.8582,44.8952 40.5,43.5C 49.3027,43.3504 57.9693,44.3504 66.5,46.5C 67.4419,46.3918 68.2753,46.0585 69,45.5C 69.4935,43.8659 69.6602,42.1992 69.5,40.5C 66.1667,40.5 62.8333,40.5 59.5,40.5C 59.5,33.8333 59.5,27.1667 59.5,20.5C 63.1667,20.5 66.8333,20.5 70.5,20.5C 70.5,16.8333 70.5,13.1667 70.5,9.5C 77.1667,9.5 83.8333,9.5 90.5,9.5C 90.5,13.1667 90.5,16.8333 90.5,20.5C 94.5,20.5 98.5,20.5 102.5,20.5C 102.5,27.1667 102.5,33.8333 102.5,40.5C 99.1667,40.5 95.8333,40.5 92.5,40.5C 92.5,42.5 92.5,44.5 92.5,46.5C 94.4147,46.7845 96.0813,46.4511 97.5,45.5 Z M 56.5,91.5 C 54.9059,88.2358 52.5725,85.5691 49.5,83.5C 49.573,81.9731 48.9063,80.9731 47.5,80.5C 47.5886,73.9373 50.922,71.4373 57.5,73C 60.0336,73.5163 62.2002,74.683 64,76.5C 64.6667,82.8333 64.6667,89.1667 64,95.5C 63.6667,95.8333 63.3333,96.1667 63,96.5C 60.6721,95.0007 58.5054,93.334 56.5,91.5 Z M 110.5,72.5 C 113.387,74.7179 114.221,77.7179 113,81.5C 108.857,87.4847 103.691,92.1513 97.5,95.5C 97.2045,88.4122 97.5379,81.4122 98.5,74.5C 102.342,72.9983 106.342,72.3316 110.5,72.5 Z"/></g>
<g><path style="opacity:1" fill="#f5f5f5" d="M 74.5,12.5 C 78.8333,12.5 83.1667,12.5 87.5,12.5C 87.5,16.1667 87.5,19.8333 87.5,23.5C 91.1667,23.5 94.8333,23.5 98.5,23.5C 98.5,27.8333 98.5,32.1667 98.5,36.5C 94.8333,36.5 91.1667,36.5 87.5,36.5C 87.2155,38.4147 87.5489,40.0813 88.5,41.5C 89.5828,45.0845 90.2494,48.7512 90.5,52.5C 94.6736,50.7057 99.007,49.3723 103.5,48.5C 111.617,48.114 119.617,48.7807 127.5,50.5C 130.533,52.016 133.2,54.016 135.5,56.5C 140.618,66.972 140.452,77.3054 135,87.5C 125.864,97.6371 116.364,107.47 106.5,117C 105.552,117.483 104.552,117.649 103.5,117.5C 84.4727,117.218 65.4727,117.551 46.5,118.5C 40.5591,110.058 33.7258,102.391 26,95.5C 16.5469,83.2008 16.0469,70.5342 24.5,57.5C 33.1319,47.9391 43.7986,44.7725 56.5,48C 60.7614,48.2989 64.7614,49.4656 68.5,51.5C 69.4419,51.3918 70.2753,51.0585 71,50.5C 71.3153,48.4144 71.8153,46.4144 72.5,44.5C 74.3117,42.2866 74.6451,39.9533 73.5,37.5C 70.3752,36.5206 67.0419,36.1872 63.5,36.5C 63.5,32.5 63.5,28.5 63.5,24.5C 67.1667,24.5 70.8333,24.5 74.5,24.5C 74.5,20.5 74.5,16.5 74.5,12.5 Z M 56.5,91.5 C 54.9059,88.2358 52.5725,85.5691 49.5,83.5C 49.573,81.9731 48.9063,80.9731 47.5,80.5C 47.5886,73.9373 50.922,71.4373 57.5,73C 60.0336,73.5163 62.2002,74.683 64,76.5C 64.6667,82.8333 64.6667,89.1667 64,95.5C 63.6667,95.8333 63.3333,96.1667 63,96.5C 60.6721,95.0007 58.5054,93.334 56.5,91.5 Z M 110.5,72.5 C 113.387,74.7179 114.221,77.7179 113,81.5C 108.857,87.4847 103.691,92.1513 97.5,95.5C 97.2045,88.4122 97.5379,81.4122 98.5,74.5C 102.342,72.9983 106.342,72.3316 110.5,72.5 Z"/></g>
<g><path style="opacity:1" fill="#a6a6a6" d="M 74.5,12.5 C 74.5,16.5 74.5,20.5 74.5,24.5C 70.8333,24.5 67.1667,24.5 63.5,24.5C 63.5,28.5 63.5,32.5 63.5,36.5C 67.0419,36.1872 70.3752,36.5206 73.5,37.5C 69.8333,37.5 66.1667,37.5 62.5,37.5C 62.5,32.8333 62.5,28.1667 62.5,23.5C 66.1667,23.5 69.8333,23.5 73.5,23.5C 73.185,19.6286 73.5184,15.9619 74.5,12.5 Z"/></g>
<g><path style="opacity:1" fill="#aeaeae" d="M 98.5,36.5 C 95.3752,37.4794 92.0419,37.8128 88.5,37.5C 88.5,38.8333 88.5,40.1667 88.5,41.5C 87.5489,40.0813 87.2155,38.4147 87.5,36.5C 91.1667,36.5 94.8333,36.5 98.5,36.5 Z"/></g>
<g><path style="opacity:0.206" fill="#708456" d="M 105.5,43.5 C 107.81,42.8362 110.31,42.5029 113,42.5C 117.112,42.3489 120.946,43.0156 124.5,44.5C 118.196,43.7403 111.863,43.407 105.5,43.5 Z"/></g>
<g><path style="opacity:1" fill="#b8b8b8" d="M 73.5,37.5 C 74.6451,39.9533 74.3117,42.2866 72.5,44.5C 72.6741,42.139 73.0074,39.8056 73.5,37.5 Z"/></g>
<g><path style="opacity:0.318" fill="#6d7f54" d="M 105.5,43.5 C 103.22,45.2227 100.553,45.8893 97.5,45.5C 99.8383,43.9605 102.505,43.2938 105.5,43.5 Z"/></g>
<g><path style="opacity:0.027" fill="#748958" d="M 124.5,44.5 C 126.698,44.1201 128.365,44.7868 129.5,46.5C 127.597,46.2041 125.93,45.5375 124.5,44.5 Z"/></g>
<g><path style="opacity:0.098" fill="#748958" d="M 129.5,46.5 C 131.38,46.2291 132.713,46.8958 133.5,48.5C 131.847,48.3404 130.514,47.6737 129.5,46.5 Z"/></g>
<g><path style="opacity:0.996" fill="#5d684f" d="M 40.5,43.5 C 37.8582,44.8952 35.1915,46.3952 32.5,48C 31.2068,48.49 29.8734,48.6567 28.5,48.5C 31.7679,45.2935 35.7679,43.6268 40.5,43.5 Z"/></g>
<g><path style="opacity:1" fill="#c7c7c7" d="M 103.5,48.5 C 109.319,47.3475 115.319,47.1808 121.5,48C 123.974,48.0367 125.974,48.87 127.5,50.5C 119.617,48.7807 111.617,48.114 103.5,48.5 Z"/></g>
<g><path style="opacity:0.396" fill="#6d7e55" d="M 133.5,48.5 C 136.855,49.8552 139.189,52.1886 140.5,55.5C 137.785,53.4518 135.452,51.1184 133.5,48.5 Z"/></g>
<g><path style="opacity:0.608" fill="#687853" d="M 28.5,48.5 C 14.2299,62.0575 11.5632,77.7242 20.5,95.5C 11.3506,82.4667 11.1839,69.1334 20,55.5C 22.4356,52.5532 25.2689,50.2199 28.5,48.5 Z"/></g>
<g><path style="opacity:0.216" fill="#6c7d54" d="M 142.5,58.5 C 145.181,61.1918 146.514,64.5252 146.5,68.5C 144.654,65.46 143.321,62.1267 142.5,58.5 Z"/></g>
<g><path style="opacity:1" fill="#d0d0d0" d="M 135.5,56.5 C 138.841,59.8397 141.174,63.8397 142.5,68.5C 142.74,74.227 142.407,79.8936 141.5,85.5C 139.762,89.9765 137.262,93.9765 134,97.5C 127.282,103.716 121.115,110.383 115.5,117.5C 111.555,118.491 107.555,118.824 103.5,118.5C 103.5,118.167 103.5,117.833 103.5,117.5C 104.552,117.649 105.552,117.483 106.5,117C 116.364,107.47 125.864,97.6371 135,87.5C 140.452,77.3054 140.618,66.972 135.5,56.5 Z"/></g>
<g><path style="opacity:1" fill="#8f8f8f" d="M 59.5,68.5 C 55.4338,68.307 51.4338,68.6403 47.5,69.5C 47.6107,68.8826 47.944,68.3826 48.5,68C 52.3575,67.1901 56.0242,67.3567 59.5,68.5 Z"/></g>
<g><path style="opacity:1" fill="#909090" d="M 112.5,68.5 C 107.341,68.1817 102.341,68.8483 97.5,70.5C 98.0577,69.2101 99.0577,68.3768 100.5,68C 104.689,67.1881 108.689,67.3547 112.5,68.5 Z"/></g>
<g><path style="opacity:0.997" fill="#4d4e4c" d="M 59.5,68.5 C 62.2594,69.6424 64.9261,70.9757 67.5,72.5C 68.4466,81.7803 68.7799,91.1136 68.5,100.5C 65.1501,100.665 61.8168,100.498 58.5,100C 54.701,95.1994 50.5343,90.6994 46,86.5C 42.7187,82.2379 41.8854,77.5712 43.5,72.5C 44.8518,71.4756 46.1851,70.4756 47.5,69.5C 51.4338,68.6403 55.4338,68.307 59.5,68.5 Z M 56.5,91.5 C 54.9059,88.2358 52.5725,85.5691 49.5,83.5C 49.573,81.9731 48.9063,80.9731 47.5,80.5C 47.5886,73.9373 50.922,71.4373 57.5,73C 60.0336,73.5163 62.2002,74.683 64,76.5C 64.6667,82.8333 64.6667,89.1667 64,95.5C 63.6667,95.8333 63.3333,96.1667 63,96.5C 60.6721,95.0007 58.5054,93.334 56.5,91.5 Z"/></g>
<g><path style="opacity:0.998" fill="#4d4e4c" d="M 112.5,68.5 C 114.349,69.593 116.016,70.9263 117.5,72.5C 118.299,75.4299 118.632,78.4299 118.5,81.5C 113.912,88.0965 108.912,94.4298 103.5,100.5C 99.8333,100.5 96.1667,100.5 92.5,100.5C 92.5,91.5 92.5,82.5 92.5,73.5C 94.0009,72.2485 95.6675,71.2485 97.5,70.5C 102.341,68.8483 107.341,68.1817 112.5,68.5 Z M 110.5,72.5 C 113.387,74.7179 114.221,77.7179 113,81.5C 108.857,87.4847 103.691,92.1513 97.5,95.5C 97.2045,88.4122 97.5379,81.4122 98.5,74.5C 102.342,72.9983 106.342,72.3316 110.5,72.5 Z"/></g>
<g><path style="opacity:0.031" fill="#738857" d="M 56.5,91.5 C 58.5054,93.334 60.6721,95.0007 63,96.5C 63.3333,96.1667 63.6667,95.8333 64,95.5C 64.6667,89.1667 64.6667,82.8333 64,76.5C 62.2002,74.683 60.0336,73.5163 57.5,73C 50.922,71.4373 47.5886,73.9373 47.5,80.5C 45.6088,76.7409 46.6088,73.9076 50.5,72C 55.9446,70.7812 60.7779,71.9479 65,75.5C 65.4997,82.8258 65.6663,90.1591 65.5,97.5C 60.8909,97.8879 57.8909,95.8879 56.5,91.5 Z"/></g>
<g><path style="opacity:0.049" fill="#738958" d="M 110.5,72.5 C 106.342,72.3316 102.342,72.9983 98.5,74.5C 99.347,73.0337 100.68,72.2004 102.5,72C 105.367,71.1993 108.034,71.3659 110.5,72.5 Z"/></g>
<g><path style="opacity:1" fill="#a6a6a6" d="M 92.5,73.5 C 92.5,82.5 92.5,91.5 92.5,100.5C 96.1667,100.5 99.8333,100.5 103.5,100.5C 99.7016,101.483 95.7016,101.817 91.5,101.5C 91.1731,91.985 91.5064,82.6517 92.5,73.5 Z"/></g>
<g><path style="opacity:1" fill="#707070" d="M 67.5,72.5 C 68.1174,72.6107 68.6174,72.944 69,73.5C 69.824,82.6762 69.6573,91.6762 68.5,100.5C 68.7799,91.1136 68.4466,81.7803 67.5,72.5 Z"/></g>
<g><path style="opacity:1" fill="#a0a0a0" d="M 117.5,72.5 C 118.117,72.6107 118.617,72.944 119,73.5C 119.801,76.367 119.634,79.0336 118.5,81.5C 118.632,78.4299 118.299,75.4299 117.5,72.5 Z"/></g>
<g><path style="opacity:1" fill="#767676" d="M 142.5,68.5 C 143.651,73.6503 143.817,78.9836 143,84.5C 142.617,85.056 142.117,85.3893 141.5,85.5C 142.407,79.8936 142.74,74.227 142.5,68.5 Z"/></g>
<g><path style="opacity:0.176" fill="#758c58" d="M 47.5,80.5 C 48.9063,80.9731 49.573,81.9731 49.5,83.5C 48.0937,83.0269 47.427,82.0269 47.5,80.5 Z"/></g>
<g><path style="opacity:0.49" fill="#6f8255" d="M 49.5,83.5 C 52.5725,85.5691 54.9059,88.2358 56.5,91.5C 53.4275,89.4309 51.0941,86.7642 49.5,83.5 Z"/></g>
<g><path style="opacity:0.38" fill="#6a7b54" d="M 145.5,87.5 C 144.59,90.9922 142.924,93.9922 140.5,96.5C 141.41,93.0078 143.076,90.0078 145.5,87.5 Z"/></g>
<g><path style="opacity:0.408" fill="#6e8155" d="M 110.5,72.5 C 114.784,73.3847 116.284,76.0514 115,80.5C 110.66,87.3397 105.16,93.0064 98.5,97.5C 97.5581,97.3918 96.7247,97.0585 96,96.5C 95.3333,89.5 95.3333,82.5 96,75.5C 96.6708,74.7476 97.5041,74.4142 98.5,74.5C 97.5379,81.4122 97.2045,88.4122 97.5,95.5C 103.691,92.1513 108.857,87.4847 113,81.5C 114.221,77.7179 113.387,74.7179 110.5,72.5 Z"/></g>
<g><path style="opacity:0.039" fill="#6f8356" d="M 21.5,96.5 C 23.2624,97.2623 24.2624,98.5956 24.5,100.5C 22.7376,99.7377 21.7376,98.4044 21.5,96.5 Z"/></g>
<g><path style="opacity:0.094" fill="#6e8155" d="M 139.5,97.5 C 138.243,100.427 136.243,102.761 133.5,104.5C 134.757,101.573 136.757,99.2393 139.5,97.5 Z"/></g>
<g><path style="opacity:0.012" fill="#728757" d="M 27.5,103.5 C 32.2297,107.227 36.2297,111.56 39.5,116.5C 34.7703,112.773 30.7703,108.44 27.5,103.5 Z"/></g>
<g><path style="opacity:1" fill="#777777" d="M 103.5,117.5 C 103.5,117.833 103.5,118.167 103.5,118.5C 84.2991,118.572 65.2991,118.572 46.5,118.5C 65.4727,117.551 84.4727,117.218 103.5,117.5 Z"/></g>
<g><path style="opacity:0.122" fill="#738957" d="M 123.5,114.5 C 122.758,116.426 121.758,118.259 120.5,120C 121.942,120.377 122.942,121.21 123.5,122.5C 118.605,120.321 118.605,117.654 123.5,114.5 Z"/></g>
<g><path style="opacity:0.224" fill="#708556" d="M 39.5,116.5 C 41.7271,117.401 42.7271,119.067 42.5,121.5C 41.5,121.5 40.5,121.5 39.5,121.5C 40.562,119.901 40.562,118.234 39.5,116.5 Z"/></g>
<g><path style="opacity:1" fill="#7a7a7a" d="M 101.5,121.5 C 85.8048,121.229 70.1381,121.563 54.5,122.5C 55.2625,121.732 56.2625,121.232 57.5,121C 72.3391,120.172 87.0058,120.339 101.5,121.5 Z"/></g>
<g><path style="opacity:0.027" fill="#6e8155" d="M 123.5,122.5 C 126.167,123.167 127.833,124.833 128.5,127.5C 126.5,126.167 124.833,124.5 123.5,122.5 Z"/></g>
<g><path style="opacity:1" fill="#f6f6f6" d="M 101.5,121.5 C 108.381,121.892 115.048,123.392 121.5,126C 123.617,127.731 125.117,129.898 126,132.5C 126.499,136.821 126.666,141.154 126.5,145.5C 96.1667,145.5 65.8333,145.5 35.5,145.5C 35.2743,140.438 35.6076,135.438 36.5,130.5C 40.7075,124.287 46.7075,121.621 54.5,122.5C 70.1381,121.563 85.8048,121.229 101.5,121.5 Z"/></g>
<g><path style="opacity:0.576" fill="#667452" d="M 39.5,121.5 C 37.8729,123.63 36.0396,125.63 34,127.5C 31.7061,134.615 30.8728,141.948 31.5,149.5C 31.1667,149.5 30.8333,149.5 30.5,149.5C 29.4816,141.689 30.3149,134.022 33,126.5C 34.7772,124.21 36.9438,122.543 39.5,121.5 Z"/></g>
<g><path style="opacity:1" fill="#868686" d="M 36.5,130.5 C 35.6076,135.438 35.2743,140.438 35.5,145.5C 65.8333,145.5 96.1667,145.5 126.5,145.5C 96.0045,146.498 65.3379,146.831 34.5,146.5C 34.3341,141.489 34.5007,136.489 35,131.5C 35.3826,130.944 35.8826,130.611 36.5,130.5 Z"/></g>
<g><path style="opacity:0.142" fill="#738958" d="M 128.5,127.5 C 129.793,128.842 130.626,130.509 131,132.5C 131.499,138.491 131.666,144.491 131.5,150.5C 97.6625,150.832 63.9959,150.498 30.5,149.5C 30.8333,149.5 31.1667,149.5 31.5,149.5C 64.5,149.5 97.5,149.5 130.5,149.5C 130.909,142.017 130.242,134.684 128.5,127.5 Z"/></g>
</svg>
