<?xml version="1.0" encoding="UTF-8"?>
<!DOCTYPE svg PUBLIC "-//W3C//DTD SVG 1.1//EN" "http://www.w3.org/Graphics/SVG/1.1/DTD/svg11.dtd">
<svg xmlns="http://www.w3.org/2000/svg" version="1.1" width="160px" height="162px" style="shape-rendering:geometricPrecision; text-rendering:geometricPrecision; image-rendering:optimizeQuality; fill-rule:evenodd; clip-rule:evenodd" xmlns:xlink="http://www.w3.org/1999/xlink">
<g><path style="opacity:0.451" fill="#6d7f55" d="M 95.5,29.5 C 89.6185,27.8198 83.6185,26.6531 77.5,26C 73.5,22 69.5,18 65.5,14C 63.8659,13.5065 62.1992,13.3398 60.5,13.5C 61.531,12.7515 62.6976,12.0848 64,11.5C 68.8006,15.299 73.3006,19.4657 77.5,24C 83.8954,24.9262 89.8954,26.7595 95.5,29.5 Z"/></g>
<g><path style="opacity:0.471" fill="#6c7e54" d="M 60.5,13.5 C 59.5,15.1667 58.1667,16.5 56.5,17.5C 56.8333,15.1667 58.1667,13.8333 60.5,13.5 Z"/></g>
<g><path style="opacity:0.999" fill="#50514e" d="M 60.5,13.5 C 62.1992,13.3398 63.8659,13.5065 65.5,14C 69.5,18 73.5,22 77.5,26C 83.6185,26.6531 89.6185,27.8198 95.5,29.5C 96.4916,29.3284 97.1583,29.6618 97.5,30.5C 100.494,32.9998 103.827,34.9998 107.5,36.5C 108.262,38.2624 109.596,39.2624 111.5,39.5C 113.094,42.7642 115.427,45.4309 118.5,47.5C 121.502,50.1612 123.502,53.4945 124.5,57.5C 124.182,60.4815 125.182,62.8148 127.5,64.5C 128.365,74.1521 129.032,83.8187 129.5,93.5C 127.624,102.882 125.624,112.215 123.5,121.5C 125.216,121.629 126.883,121.962 128.5,122.5C 129.5,124.167 130.833,125.5 132.5,126.5C 132.66,128.153 133.326,129.486 134.5,130.5C 135.26,136.804 135.593,143.137 135.5,149.5C 102.5,149.5 69.5,149.5 36.5,149.5C 36.3257,142.465 36.6591,135.465 37.5,128.5C 37.3284,127.508 37.6618,126.842 38.5,126.5C 41.5362,124.298 44.7029,122.298 48,120.5C 49.8458,116.145 51.6791,111.812 53.5,107.5C 53.7376,105.596 54.7376,104.262 56.5,103.5C 59.1667,101.5 61.5,99.1667 63.5,96.5C 69.0114,92.9827 73.8447,88.6494 78,83.5C 80.5152,74.5731 79.0152,73.5731 73.5,80.5C 73.5,81.1667 73.1667,81.5 72.5,81.5C 70.9731,81.427 69.9731,82.0937 69.5,83.5C 64.3261,85.5033 58.9927,87.0033 53.5,88C 50.8002,89.8567 49.1335,92.3567 48.5,95.5C 48.1667,96.5 47.5,97.1667 46.5,97.5C 43.4816,97.6646 40.4816,97.498 37.5,97C 34.0811,95.1465 30.4144,93.9798 26.5,93.5C 25.1667,91.5 23.5,89.8333 21.5,88.5C 21.5,85.1667 21.5,81.8333 21.5,78.5C 21.2729,76.0672 22.2729,74.4006 24.5,73.5C 26.9,71.7036 28.5667,69.3702 29.5,66.5C 30.9063,66.0269 31.573,65.0269 31.5,63.5C 34.2768,61.0495 36.2768,58.0495 37.5,54.5C 39.8685,48.9388 42.3685,43.2722 45,37.5C 48,34.5 51,31.5 54,28.5C 55.3095,24.9296 56.1428,21.263 56.5,17.5C 58.1667,16.5 59.5,15.1667 60.5,13.5 Z"/></g>
<g><path style="opacity:1" fill="#f6f6f6" d="M 86.5,31.5 C 90.4757,34.4921 94.809,36.9921 99.5,39C 112.194,49.5721 117.027,63.0721 114,79.5C 111.73,85.6323 109.063,91.6323 106,97.5C 101.418,102.991 97.5846,108.991 94.5,115.5C 85.0086,116.167 75.6753,116.833 66.5,117.5C 61.9435,117.745 57.6102,117.745 53.5,117.5C 54.7138,114.07 56.2138,110.736 58,107.5C 65.6971,100.634 73.1971,93.6337 80.5,86.5C 82.8251,85.3454 83.9918,83.3454 84,80.5C 84.2977,75.9935 85.2977,71.6601 87,67.5C 87.6667,64.5 87.6667,61.5 87,58.5C 86.1072,57.2888 85.2739,57.2888 84.5,58.5C 82.4765,62.1807 80.4765,65.8474 78.5,69.5C 75.0359,72.4625 71.7025,75.6291 68.5,79C 66.7834,80.5588 64.7834,81.3921 62.5,81.5C 58.2385,80.1308 53.9052,79.2975 49.5,79C 47.4006,83.7999 45.4006,88.6333 43.5,93.5C 39.0223,93.1184 34.6889,92.1184 30.5,90.5C 29.1667,89.8333 27.8333,89.1667 26.5,88.5C 25.1667,85.1667 25.1667,81.8333 26.5,78.5C 30.9335,71.2862 35.6002,64.2862 40.5,57.5C 42.5837,54.9466 43.917,51.9466 44.5,48.5C 45.6056,45.946 46.439,43.2794 47,40.5C 51.0352,36.7998 54.7019,32.7998 58,28.5C 58.5478,24.7132 59.7145,21.2132 61.5,18C 62.5,17.3333 63.5,17.3333 64.5,18C 68.8333,21 72.5,24.6667 75.5,29C 79.3474,29.6334 83.014,30.4667 86.5,31.5 Z"/></g>
<g><path style="opacity:0.51" fill="#677753" d="M 97.5,30.5 C 101.461,31.4792 104.794,33.4792 107.5,36.5C 103.827,34.9998 100.494,32.9998 97.5,30.5 Z"/></g>
<g><path style="opacity:1" fill="#909090" d="M 91.5,32.5 C 93.9674,32.7549 95.9674,33.7549 97.5,35.5C 95.0326,35.2451 93.0326,34.2451 91.5,32.5 Z"/></g>
<g><path style="opacity:0.027" fill="#708456" d="M 107.5,36.5 C 109.404,36.7376 110.738,37.7376 111.5,39.5C 109.596,39.2624 108.262,38.2624 107.5,36.5 Z"/></g>
<g><path style="opacity:0.365" fill="#697a53" d="M 56.5,17.5 C 56.1428,21.263 55.3095,24.9296 54,28.5C 51,31.5 48,34.5 45,37.5C 42.3685,43.2722 39.8685,48.9388 37.5,54.5C 38.6898,49.4287 40.1898,44.4287 42,39.5C 45.2981,35.2002 48.9648,31.2002 53,27.5C 53.8775,23.9477 55.0442,20.6144 56.5,17.5 Z"/></g>
<g><path style="opacity:1" fill="#d0d0d0" d="M 86.5,31.5 C 88.2161,31.6287 89.8828,31.962 91.5,32.5C 93.0326,34.2451 95.0326,35.2451 97.5,35.5C 112.33,43.1741 121.33,55.1741 124.5,71.5C 125.35,78.7985 125.683,86.1319 125.5,93.5C 123.963,101.85 122.297,110.183 120.5,118.5C 116.5,118.5 112.5,118.5 108.5,118.5C 94.6766,117.504 80.6766,117.171 66.5,117.5C 75.6753,116.833 85.0086,116.167 94.5,115.5C 97.5846,108.991 101.418,102.991 106,97.5C 109.063,91.6323 111.73,85.6323 114,79.5C 117.027,63.0721 112.194,49.5721 99.5,39C 94.809,36.9921 90.4757,34.4921 86.5,31.5 Z"/></g>
<g><path style="opacity:0.655" fill="#687853" d="M 111.5,39.5 C 114.573,41.5691 116.906,44.2358 118.5,47.5C 115.427,45.4309 113.094,42.7642 111.5,39.5 Z"/></g>
<g><path style="opacity:1" fill="#525252" d="M 68.5,44.5 C 68.8342,47.188 68.1675,49.5214 66.5,51.5C 63.4212,51.2601 60.4212,51.5934 57.5,52.5C 56.4103,48.4919 57.7436,45.3253 61.5,43C 64.171,42.1668 66.5043,42.6668 68.5,44.5 Z"/></g>
<g><path style="opacity:1" fill="#9c9c9c" d="M 44.5,48.5 C 43.917,51.9466 42.5837,54.9466 40.5,57.5C 41.083,54.0534 42.4163,51.0534 44.5,48.5 Z"/></g>
<g><path style="opacity:1" fill="#a3a3a3" d="M 68.5,44.5 C 69.6225,46.2884 69.7891,48.2884 69,50.5C 68.3292,51.2524 67.4959,51.5858 66.5,51.5C 68.1675,49.5214 68.8342,47.188 68.5,44.5 Z"/></g>
<g><path style="opacity:0.173" fill="#6f8356" d="M 37.5,54.5 C 36.2768,58.0495 34.2768,61.0495 31.5,63.5C 32.7589,59.9754 34.7589,56.9754 37.5,54.5 Z"/></g>
<g><path style="opacity:1" fill="#d0d0d0" d="M 80.5,86.5 C 82.3491,82.3598 82.8491,78.0265 82,73.5C 81.5017,71.4556 80.335,70.1223 78.5,69.5C 80.4765,65.8474 82.4765,62.1807 84.5,58.5C 85.2739,57.2888 86.1072,57.2888 87,58.5C 87.6667,61.5 87.6667,64.5 87,67.5C 85.2977,71.6601 84.2977,75.9935 84,80.5C 83.9918,83.3454 82.8251,85.3454 80.5,86.5 Z"/></g>
<g><path style="opacity:0.18" fill="#6a7b54" d="M 124.5,57.5 C 126.293,59.4261 127.293,61.7594 127.5,64.5C 125.182,62.8148 124.182,60.4815 124.5,57.5 Z"/></g>
<g><path style="opacity:0.255" fill="#6f8356" d="M 31.5,63.5 C 31.573,65.0269 30.9063,66.0269 29.5,66.5C 29.427,64.9731 30.0937,63.9731 31.5,63.5 Z"/></g>
<g><path style="opacity:0.306" fill="#6d8055" d="M 29.5,66.5 C 28.5667,69.3702 26.9,71.7036 24.5,73.5C 25.4333,70.6298 27.1,68.2964 29.5,66.5 Z"/></g>
<g><path style="opacity:1" fill="#d2d2d2" d="M 62.5,81.5 C 58.9464,82.2487 55.2797,83.082 51.5,84C 48.9491,87.0444 46.6158,90.2111 44.5,93.5C 44.1667,93.5 43.8333,93.5 43.5,93.5C 45.4006,88.6333 47.4006,83.7999 49.5,79C 53.9052,79.2975 58.2385,80.1308 62.5,81.5 Z"/></g>
<g><path style="opacity:0.518" fill="#6e8055" d="M 21.5,78.5 C 21.5,81.8333 21.5,85.1667 21.5,88.5C 18.9544,85.1322 18.9544,81.7988 21.5,78.5 Z"/></g>
<g><path style="opacity:1" fill="#9f9f9f" d="M 26.5,78.5 C 25.1667,81.8333 25.1667,85.1667 26.5,88.5C 25.8826,88.3893 25.3826,88.056 25,87.5C 24.3333,84.8333 24.3333,82.1667 25,79.5C 25.3826,78.944 25.8826,78.6107 26.5,78.5 Z"/></g>
<g><path style="opacity:0.02" fill="#748a58" d="M 72.5,81.5 C 72.0269,82.9063 71.0269,83.573 69.5,83.5C 69.9731,82.0937 70.9731,81.427 72.5,81.5 Z"/></g>
<g><path style="opacity:1" fill="#959595" d="M 124.5,71.5 C 125.222,71.9175 125.722,72.5842 126,73.5C 126.821,80.3464 126.654,87.013 125.5,93.5C 125.683,86.1319 125.35,78.7985 124.5,71.5 Z"/></g>
<g><path style="opacity:0.745" fill="#5f6b50" d="M 127.5,64.5 C 130.892,73.9622 131.892,83.6289 130.5,93.5C 130.167,93.5 129.833,93.5 129.5,93.5C 129.032,83.8187 128.365,74.1521 127.5,64.5 Z"/></g>
<g><path style="opacity:0.035" fill="#708456" d="M 21.5,88.5 C 23.5,89.8333 25.1667,91.5 26.5,93.5C 23.8333,92.8333 22.1667,91.1667 21.5,88.5 Z"/></g>
<g><path style="opacity:0.039" fill="#718657" d="M 69.5,83.5 C 68.9423,84.7899 67.9423,85.6232 66.5,86C 62.5796,87.3134 58.5796,88.3134 54.5,89C 52.5998,91.3353 50.5998,93.502 48.5,95.5C 49.1335,92.3567 50.8002,89.8567 53.5,88C 58.9927,87.0033 64.3261,85.5033 69.5,83.5 Z"/></g>
<g><path style="opacity:1" fill="#9a9a9a" d="M 30.5,90.5 C 34.6889,92.1184 39.0223,93.1184 43.5,93.5C 43.8333,93.5 44.1667,93.5 44.5,93.5C 39.358,95.0146 34.6913,94.0146 30.5,90.5 Z"/></g>
<g><path style="opacity:0.427" fill="#6d8055" d="M 63.5,96.5 C 68.1073,91.9443 72.6073,87.2777 77,82.5C 77.6667,81.1667 77.6667,79.8333 77,78.5C 76.1841,79.8228 75.0174,80.4894 73.5,80.5C 79.0152,73.5731 80.5152,74.5731 78,83.5C 73.8447,88.6494 69.0114,92.9827 63.5,96.5 Z"/></g>
<g><path style="opacity:0.504" fill="#6a7b54" d="M 26.5,93.5 C 30.4144,93.9798 34.0811,95.1465 37.5,97C 40.4816,97.498 43.4816,97.6646 46.5,97.5C 45.5039,98.6651 44.1705,99.3318 42.5,99.5C 36.638,98.5549 31.3046,96.5549 26.5,93.5 Z"/></g>
<g><path style="opacity:0.337" fill="#718556" d="M 63.5,96.5 C 61.5,99.1667 59.1667,101.5 56.5,103.5C 57.8333,100.167 60.1667,97.8333 63.5,96.5 Z"/></g>
<g><path style="opacity:0.231" fill="#6d8055" d="M 129.5,93.5 C 129.833,93.5 130.167,93.5 130.5,93.5C 129.52,102.251 127.52,110.751 124.5,119C 126.093,119.949 127.426,121.115 128.5,122.5C 126.883,121.962 125.216,121.629 123.5,121.5C 125.624,112.215 127.624,102.882 129.5,93.5 Z"/></g>
<g><path style="opacity:1" fill="#7f7f7f" d="M 53.5,117.5 C 57.6102,117.745 61.9435,117.745 66.5,117.5C 80.6766,117.171 94.6766,117.504 108.5,118.5C 91.149,118.223 73.8156,118.556 56.5,119.5C 55.1667,119.167 53.8333,118.833 52.5,118.5C 52.6236,117.893 52.9569,117.56 53.5,117.5 Z"/></g>
<g><path style="opacity:1" fill="#7a7a7a" d="M 112.5,122.5 C 94.8215,121.249 77.1548,121.249 59.5,122.5C 60.2625,121.732 61.2625,121.232 62.5,121C 77.8333,120.333 93.1667,120.333 108.5,121C 110.058,121.21 111.391,121.71 112.5,122.5 Z"/></g>
<g><path style="opacity:0.333" fill="#6d7f55" d="M 53.5,107.5 C 51.6791,111.812 49.8458,116.145 48,120.5C 44.7029,122.298 41.5362,124.298 38.5,126.5C 40.5135,123.333 43.3469,120.999 47,119.5C 48.1503,114.823 50.317,110.823 53.5,107.5 Z"/></g>
<g><path style="opacity:0.02" fill="#758b58" d="M 128.5,122.5 C 130.833,122.833 132.167,124.167 132.5,126.5C 130.833,125.5 129.5,124.167 128.5,122.5 Z"/></g>
<g><path style="opacity:1" fill="#f8f8f8" d="M 112.5,122.5 C 126.944,122.879 133.277,130.212 131.5,144.5C 101.167,144.5 70.8333,144.5 40.5,144.5C 40.4372,139.797 40.7705,135.13 41.5,130.5C 42.6582,127.178 44.9916,125.012 48.5,124C 52.0863,122.892 55.753,122.392 59.5,122.5C 77.1548,121.249 94.8215,121.249 112.5,122.5 Z"/></g>
<g><path style="opacity:0.145" fill="#6f8356" d="M 132.5,126.5 C 134.104,127.287 134.771,128.62 134.5,130.5C 133.326,129.486 132.66,128.153 132.5,126.5 Z"/></g>
<g><path style="opacity:0.69" fill="#6b7c54" d="M 37.5,128.5 C 36.6591,135.465 36.3257,142.465 36.5,149.5C 69.5,149.5 102.5,149.5 135.5,149.5C 102.336,150.664 69.0025,150.831 35.5,150C 34.3651,145.252 34.1985,140.419 35,135.5C 35.1558,132.809 35.9891,130.476 37.5,128.5 Z"/></g>
<g><path style="opacity:0.176" fill="#718556" d="M 134.5,130.5 C 135.984,134.054 136.651,137.888 136.5,142C 136.497,144.69 136.164,147.19 135.5,149.5C 135.593,143.137 135.26,136.804 134.5,130.5 Z"/></g>
<g><path style="opacity:1" fill="#cdcdcd" d="M 41.5,130.5 C 40.7705,135.13 40.4372,139.797 40.5,144.5C 70.8333,144.5 101.167,144.5 131.5,144.5C 101.005,145.498 70.3379,145.831 39.5,145.5C 39.3343,141.154 39.501,136.821 40,132.5C 40.2784,131.584 40.7784,130.918 41.5,130.5 Z"/></g>
</svg>
