<?xml version="1.0" encoding="UTF-8"?>
<!DOCTYPE svg PUBLIC "-//W3C//DTD SVG 1.1//EN" "http://www.w3.org/Graphics/SVG/1.1/DTD/svg11.dtd">
<svg xmlns="http://www.w3.org/2000/svg" version="1.1" width="160px" height="164px" style="shape-rendering:geometricPrecision; text-rendering:geometricPrecision; image-rendering:optimizeQuality; fill-rule:evenodd; clip-rule:evenodd" xmlns:xlink="http://www.w3.org/1999/xlink">
<g><path style="opacity:1" fill="#555553" d="M 95.5,40.5 C 96.5,40.8333 97.1667,41.5 97.5,42.5C 98.0798,44.7488 99.4131,46.4154 101.5,47.5C 103.155,53.3457 103.822,59.3457 103.5,65.5C 103.5,65.8333 103.5,66.1667 103.5,66.5C 101.654,68.0301 100.654,70.0301 100.5,72.5C 98.1939,73.375 97.5272,74.7084 98.5,76.5C 99.8021,78.8218 101.802,80.1551 104.5,80.5C 104.973,81.9063 105.973,82.573 107.5,82.5C 107.5,85.1667 107.5,87.8333 107.5,90.5C 107.672,91.4916 107.338,92.1583 106.5,92.5C 105.5,92.8333 104.833,93.5 104.5,94.5C 101.167,94.5 97.8333,94.5 94.5,94.5C 94.1107,97.5533 94.7773,100.22 96.5,102.5C 97.3382,102.842 97.6716,103.508 97.5,104.5C 97.7497,106.674 98.7497,108.341 100.5,109.5C 101.419,112.089 103.086,114.089 105.5,115.5C 106.262,117.262 107.596,118.262 109.5,118.5C 113.141,121.805 116.808,125.138 120.5,128.5C 120.66,130.153 121.326,131.486 122.5,132.5C 122.903,135.486 123.903,138.152 125.5,140.5C 126.833,144.167 126.833,147.833 125.5,151.5C 95.5,151.5 65.5,151.5 35.5,151.5C 35.2367,144.63 36.2367,137.964 38.5,131.5C 39.9063,131.027 40.573,130.027 40.5,128.5C 44.1925,125.138 47.8592,121.805 51.5,118.5C 53.4044,118.262 54.7377,117.262 55.5,115.5C 59.6685,112.495 62.3352,108.495 63.5,103.5C 64.0147,101.106 64.6814,98.7722 65.5,96.5C 62.2746,95.7632 58.9412,95.0965 55.5,94.5C 54.6618,94.1583 54.3284,93.4916 54.5,92.5C 53.7929,89.2139 53.4595,85.8806 53.5,82.5C 57.0246,81.2411 60.0246,79.2411 62.5,76.5C 63.0431,76.44 63.3764,76.1067 63.5,75.5C 57.2028,66.9189 55.8695,57.5856 59.5,47.5C 62.6937,44.7279 65.6937,41.7279 68.5,38.5C 77.8382,35.2954 86.8382,35.962 95.5,40.5 Z"/></g>
<g><path style="opacity:0.376" fill="#b4b6a2" d="M 95.5,40.5 C 86.8382,35.962 77.8382,35.2954 68.5,38.5C 75.7186,33.8147 83.3853,33.3147 91.5,37C 93.0931,37.9487 94.4264,39.1154 95.5,40.5 Z"/></g>
<g><path style="opacity:1" fill="#f5f5f5" d="M 94.5,46.5 C 99.1802,61.3068 94.1802,71.1402 79.5,76C 83.5845,76.2332 87.5845,76.7332 91.5,77.5C 92.2516,79.7607 93.2516,81.9274 94.5,84C 94.0726,87.0234 92.7393,89.5234 90.5,91.5C 83.8333,91.5 77.1667,91.5 70.5,91.5C 66.4862,91.6655 62.4862,91.4988 58.5,91C 56.6218,89.0072 56.2885,86.8405 57.5,84.5C 61.772,82.2256 65.772,79.5589 69.5,76.5C 67.8509,74.3501 66.0176,72.3501 64,70.5C 62.5886,68.3496 61.7553,66.0163 61.5,63.5C 61.307,59.4338 61.6403,55.4338 62.5,51.5C 67.0944,41.8691 74.7611,38.0358 85.5,40C 89.4996,40.8397 92.4996,43.0064 94.5,46.5 Z"/></g>
<g><path style="opacity:0.514" fill="#a4a694" d="M 68.5,38.5 C 65.6937,41.7279 62.6937,44.7279 59.5,47.5C 61.3598,43.3952 64.3598,40.3952 68.5,38.5 Z"/></g>
<g><path style="opacity:0.337" fill="#adaf9c" d="M 97.5,42.5 C 99.5869,43.5846 100.92,45.2512 101.5,47.5C 99.4131,46.4154 98.0798,44.7488 97.5,42.5 Z"/></g>
<g><path style="opacity:0.937" fill="#9e9f8f" d="M 59.5,47.5 C 55.8695,57.5856 57.2028,66.9189 63.5,75.5C 63.3764,76.1067 63.0431,76.44 62.5,76.5C 56.9566,69.4645 55.1232,61.4645 57,52.5C 57.3736,50.5087 58.207,48.842 59.5,47.5 Z"/></g>
<g><path style="opacity:1" fill="#d1d1d1" d="M 94.5,46.5 C 96.7082,47.8936 98.2082,49.8936 99,52.5C 99.9842,58.6928 99.3175,64.6928 97,70.5C 94.5464,72.4412 92.713,74.7746 91.5,77.5C 87.5845,76.7332 83.5845,76.2332 79.5,76C 94.1802,71.1402 99.1802,61.3068 94.5,46.5 Z"/></g>
<g><path style="opacity:0.902" fill="#a1a392" d="M 101.5,47.5 C 102.793,48.842 103.626,50.5087 104,52.5C 104.814,57.0204 104.647,61.3537 103.5,65.5C 103.822,59.3457 103.155,53.3457 101.5,47.5 Z"/></g>
<g><path style="opacity:1" fill="#9d9d9d" d="M 62.5,51.5 C 61.6403,55.4338 61.307,59.4338 61.5,63.5C 60.3567,60.0242 60.1901,56.3575 61,52.5C 61.3826,51.944 61.8826,51.6107 62.5,51.5 Z"/></g>
<g><path style="opacity:0.231" fill="#b8baa5" d="M 103.5,66.5 C 103.539,69.089 102.539,71.089 100.5,72.5C 100.654,70.0301 101.654,68.0301 103.5,66.5 Z"/></g>
<g><path style="opacity:0.027" fill="#c6c8b0" d="M 100.5,72.5 C 100.267,74.0618 99.6005,75.3951 98.5,76.5C 97.5272,74.7084 98.1939,73.375 100.5,72.5 Z"/></g>
<g><path style="opacity:0.235" fill="#bdbfa9" d="M 62.5,76.5 C 60.0246,79.2411 57.0246,81.2411 53.5,82.5C 55.9505,79.7232 58.9505,77.7232 62.5,76.5 Z"/></g>
<g><path style="opacity:0.392" fill="#b2b4a0" d="M 98.5,76.5 C 100.853,77.3403 102.853,78.6736 104.5,80.5C 101.802,80.1551 99.8021,78.8218 98.5,76.5 Z"/></g>
<g><path style="opacity:1" fill="#cfcfcf" d="M 91.5,77.5 C 96.0533,80.2688 100.387,83.2688 104.5,86.5C 104.278,88.0554 103.611,89.3887 102.5,90.5C 98.5546,91.4909 94.5546,91.8242 90.5,91.5C 92.7393,89.5234 94.0726,87.0234 94.5,84C 93.2516,81.9274 92.2516,79.7607 91.5,77.5 Z"/></g>
<g><path style="opacity:0.055" fill="#c6c9b1" d="M 104.5,80.5 C 106.027,80.427 107.027,81.0937 107.5,82.5C 105.973,82.573 104.973,81.9063 104.5,80.5 Z"/></g>
<g><path style="opacity:0.337" fill="#bec1aa" d="M 107.5,82.5 C 108.478,82.811 109.145,83.4777 109.5,84.5C 108.95,86.6568 108.283,88.6568 107.5,90.5C 107.5,87.8333 107.5,85.1667 107.5,82.5 Z"/></g>
<g><path style="opacity:0.016" fill="#c5c7b0" d="M 53.5,82.5 C 53.4595,85.8806 53.7929,89.2139 54.5,92.5C 53.8826,92.3893 53.3826,92.056 53,91.5C 52.4212,89.3513 51.9212,87.1846 51.5,85C 51.6842,83.6244 52.3509,82.7911 53.5,82.5 Z"/></g>
<g><path style="opacity:1" fill="#d1d1d1" d="M 70.5,91.5 C 77.1667,91.5 83.8333,91.5 90.5,91.5C 91.9931,106.816 99.3264,118.483 112.5,126.5C 106.073,125.558 100.073,123.392 94.5,120C 86.7625,112.385 78.9292,104.885 71,97.5C 70.6174,98.056 70.1174,98.3893 69.5,98.5C 69.6741,96.139 70.0074,93.8056 70.5,91.5 Z"/></g>
<g><path style="opacity:0.875" fill="#797a71" d="M 104.5,94.5 C 101.5,95.1667 98.5,95.8333 95.5,96.5C 96.1495,98.4352 96.4828,100.435 96.5,102.5C 94.7773,100.22 94.1107,97.5533 94.5,94.5C 97.8333,94.5 101.167,94.5 104.5,94.5 Z"/></g>
<g><path style="opacity:0.287" fill="#bec0a9" d="M 55.5,94.5 C 58.9412,95.0965 62.2746,95.7632 65.5,96.5C 61.6707,97.069 58.3373,96.4023 55.5,94.5 Z"/></g>
<g><path style="opacity:0.302" fill="#bdbfa8" d="M 106.5,92.5 C 106.461,93.5832 106.127,94.5832 105.5,95.5C 102.232,96.487 98.8984,96.8204 95.5,96.5C 98.5,95.8333 101.5,95.1667 104.5,94.5C 104.833,93.5 105.5,92.8333 106.5,92.5 Z"/></g>
<g><path style="opacity:1" fill="#f7f7f7" d="M 112.5,126.5 C 114.264,127.326 115.598,128.659 116.5,130.5C 116.427,132.027 117.094,133.027 118.5,133.5C 119.585,137.76 120.252,142.094 120.5,146.5C 93.8333,146.5 67.1667,146.5 40.5,146.5C 40.4255,142.019 41.0921,137.686 42.5,133.5C 43.9188,130.9 45.5854,128.4 47.5,126C 56.4101,121.258 63.0768,114.424 67.5,105.5C 68.9238,103.485 69.5905,101.152 69.5,98.5C 70.1174,98.3893 70.6174,98.056 71,97.5C 78.9292,104.885 86.7625,112.385 94.5,120C 100.073,123.392 106.073,125.558 112.5,126.5 Z"/></g>
<g><path style="opacity:1" fill="#959595" d="M 69.5,98.5 C 69.5905,101.152 68.9238,103.485 67.5,105.5C 67.4095,102.848 68.0762,100.515 69.5,98.5 Z"/></g>
<g><path style="opacity:0.18" fill="#bcbfa9" d="M 63.5,103.5 C 62.3352,108.495 59.6685,112.495 55.5,115.5C 58.1696,111.492 60.8363,107.492 63.5,103.5 Z"/></g>
<g><path style="opacity:0.169" fill="#c1c4ad" d="M 97.5,104.5 C 99.2503,105.659 100.25,107.326 100.5,109.5C 98.7497,108.341 97.7497,106.674 97.5,104.5 Z"/></g>
<g><path style="opacity:0.624" fill="#b8baa5" d="M 100.5,109.5 C 102.914,110.911 104.581,112.911 105.5,115.5C 103.086,114.089 101.419,112.089 100.5,109.5 Z"/></g>
<g><path style="opacity:0.008" fill="#c5c7b0" d="M 105.5,115.5 C 107.404,115.738 108.738,116.738 109.5,118.5C 107.596,118.262 106.262,117.262 105.5,115.5 Z"/></g>
<g><path style="opacity:0.447" fill="#b7b9a4" d="M 55.5,115.5 C 54.7377,117.262 53.4044,118.262 51.5,118.5C 52.2623,116.738 53.5956,115.738 55.5,115.5 Z"/></g>
<g><path style="opacity:0.325" fill="#babca6" d="M 109.5,118.5 C 114.441,120.442 118.108,123.775 120.5,128.5C 116.808,125.138 113.141,121.805 109.5,118.5 Z"/></g>
<g><path style="opacity:0.686" fill="#a8aa98" d="M 51.5,118.5 C 47.8592,121.805 44.1925,125.138 40.5,128.5C 42.8922,123.775 46.5588,120.442 51.5,118.5 Z"/></g>
<g><path style="opacity:0.282" fill="#bdbfa9" d="M 40.5,128.5 C 40.573,130.027 39.9063,131.027 38.5,131.5C 38.427,129.973 39.0937,128.973 40.5,128.5 Z"/></g>
<g><path style="opacity:0.22" fill="#b8baa5" d="M 120.5,128.5 C 122.104,129.287 122.771,130.62 122.5,132.5C 121.326,131.486 120.66,130.153 120.5,128.5 Z"/></g>
<g><path style="opacity:1" fill="#a3a3a3" d="M 116.5,130.5 C 117.906,130.973 118.573,131.973 118.5,133.5C 117.094,133.027 116.427,132.027 116.5,130.5 Z"/></g>
<g><path style="opacity:0.212" fill="#c9ccb4" d="M 122.5,132.5 C 124.655,134.617 125.655,137.284 125.5,140.5C 123.903,138.152 122.903,135.486 122.5,132.5 Z"/></g>
<g><path style="opacity:1" fill="#cacaca" d="M 42.5,133.5 C 41.0921,137.686 40.4255,142.019 40.5,146.5C 67.1667,146.5 93.8333,146.5 120.5,146.5C 120.252,142.094 119.585,137.76 118.5,133.5C 120.956,137.738 121.956,142.404 121.5,147.5C 94.1667,147.5 66.8333,147.5 39.5,147.5C 38.9103,142.36 39.9103,137.693 42.5,133.5 Z"/></g>
<g><path style="opacity:0.147" fill="#cfd1b8" d="M 38.5,131.5 C 36.2367,137.964 35.2367,144.63 35.5,151.5C 65.5,151.5 95.5,151.5 125.5,151.5C 95.3379,152.498 65.0046,152.831 34.5,152.5C 34.3345,148.486 34.5012,144.486 35,140.5C 35.1191,136.995 36.2857,133.995 38.5,131.5 Z"/></g>
</svg>
