<?xml version="1.0" encoding="UTF-8"?>
<!DOCTYPE svg PUBLIC "-//W3C//DTD SVG 1.1//EN" "http://www.w3.org/Graphics/SVG/1.1/DTD/svg11.dtd">
<svg xmlns="http://www.w3.org/2000/svg" version="1.1" width="160px" height="162px" style="shape-rendering:geometricPrecision; text-rendering:geometricPrecision; image-rendering:optimizeQuality; fill-rule:evenodd; clip-rule:evenodd" xmlns:xlink="http://www.w3.org/1999/xlink">
<g><path style="opacity:0.788" fill="#84857a" d="M 103.5,13.5 C 103.833,14.1667 104.167,14.8333 104.5,15.5C 100.869,14.588 97.2027,14.4213 93.5,15C 91.1856,16.2673 88.8522,17.434 86.5,18.5C 89.3782,14.4427 93.3782,12.4427 98.5,12.5C 100.071,13.3094 101.738,13.6427 103.5,13.5 Z"/></g>
<g><path style="opacity:0.998" fill="#545453" d="M 63.5,13.5 C 66.2911,15.7349 69.2911,17.7349 72.5,19.5C 72.427,21.0269 73.0937,22.0269 74.5,22.5C 74.5,26.8333 74.5,31.1667 74.5,35.5C 72.8158,37.0171 71.4825,38.8504 70.5,41C 72.0821,45.3118 73.7488,49.4784 75.5,53.5C 75.804,56.5219 76.304,59.5219 77,62.5C 77.3826,63.056 77.8826,63.3893 78.5,63.5C 80.1042,62.713 80.7709,61.3797 80.5,59.5C 81.1174,59.3893 81.6174,59.056 82,58.5C 83.4033,52.528 85.2366,46.6946 87.5,41C 87.3613,39.699 86.6946,38.8656 85.5,38.5C 82.6015,31.6143 82.9348,24.9476 86.5,18.5C 88.8522,17.434 91.1856,16.2673 93.5,15C 97.2027,14.4213 100.869,14.588 104.5,15.5C 106.167,16.1667 107.833,16.8333 109.5,17.5C 110.412,19.5952 111.579,21.5952 113,23.5C 113.648,28.2041 113.481,32.8708 112.5,37.5C 112.5,38.1667 112.167,38.5 111.5,38.5C 109.825,40.002 107.992,41.3353 106,42.5C 105.782,52.521 106.282,62.521 107.5,72.5C 108.107,72.3764 108.44,72.0431 108.5,71.5C 111.464,69.0381 114.297,66.3714 117,63.5C 114.702,55.2298 116.869,48.3964 123.5,43C 130.304,40.6419 136.638,41.4752 142.5,45.5C 142.427,47.0269 143.094,48.0269 144.5,48.5C 145.338,48.8417 145.672,49.5084 145.5,50.5C 145.5,53.8333 145.5,57.1667 145.5,60.5C 145.737,61.791 145.404,62.791 144.5,63.5C 142.704,64.7927 141.037,66.2927 139.5,68C 137.975,69.0086 136.308,69.5086 134.5,69.5C 134.5,70.5 134.5,71.5 134.5,72.5C 134.672,73.4916 134.338,74.1583 133.5,74.5C 130.94,78.8213 128.94,83.488 127.5,88.5C 125.345,90.6174 124.345,93.284 124.5,96.5C 122.393,99.0567 121.059,102.057 120.5,105.5C 118.787,106.635 118.12,108.302 118.5,110.5C 116.787,111.635 116.12,113.302 116.5,115.5C 114.439,116.751 114.106,118.418 115.5,120.5C 118.188,121.513 120.854,122.513 123.5,123.5C 124.08,125.749 125.413,127.415 127.5,128.5C 128.301,130.042 128.634,131.708 128.5,133.5C 128.5,138.833 128.5,144.167 128.5,149.5C 95.5,149.5 62.5,149.5 29.5,149.5C 29.5,144.167 29.5,138.833 29.5,133.5C 29.5,132.833 29.5,132.167 29.5,131.5C 31.3922,128.26 33.7255,125.26 36.5,122.5C 39.5552,122.274 41.8885,120.941 43.5,118.5C 42.717,115.436 41.3837,112.769 39.5,110.5C 39.5979,108.447 38.9313,106.78 37.5,105.5C 36.596,104.791 36.2627,103.791 36.5,102.5C 36.3404,100.847 35.6737,99.5137 34.5,98.5C 31.9142,88.8231 28.4142,79.4898 24,70.5C 22.6439,69.6198 21.1439,69.2865 19.5,69.5C 14.109,64.3691 11.7756,58.0357 12.5,50.5C 12.5,50.1667 12.5,49.8333 12.5,49.5C 17.3595,42.5974 24.0261,40.0974 32.5,42C 35.3307,44.0007 37.9974,46.1673 40.5,48.5C 41.6448,52.8401 41.6448,57.1735 40.5,61.5C 40.7538,63.4172 41.7538,64.7505 43.5,65.5C 43.8333,65.5 44.1667,65.5 44.5,65.5C 45.7341,68.4073 47.7341,70.7407 50.5,72.5C 51.309,64.0099 51.9757,55.5099 52.5,47C 52.4313,45.0145 51.7647,43.5145 50.5,42.5C 49.1182,40.4514 47.4516,38.7847 45.5,37.5C 44.8902,36.609 44.5569,35.609 44.5,34.5C 44.5,30.8333 44.5,27.1667 44.5,23.5C 44.6596,21.847 45.3263,20.5137 46.5,19.5C 49.8076,16.7397 53.4743,14.7397 57.5,13.5C 59.4513,12.3586 61.4513,12.3586 63.5,13.5 Z"/></g>
<g><path style="opacity:0.29" fill="#b8baa5" d="M 103.5,13.5 C 106.198,13.8449 108.198,15.1782 109.5,17.5C 107.833,16.8333 106.167,16.1667 104.5,15.5C 104.167,14.8333 103.833,14.1667 103.5,13.5 Z"/></g>
<g><path style="opacity:0.506" fill="#a8aa98" d="M 57.5,13.5 C 53.4743,14.7397 49.8076,16.7397 46.5,19.5C 48.7623,15.2747 52.4289,13.2747 57.5,13.5 Z"/></g>
<g><path style="opacity:0.553" fill="#abad9a" d="M 63.5,13.5 C 67.634,13.9932 70.634,15.9932 72.5,19.5C 69.2911,17.7349 66.2911,15.7349 63.5,13.5 Z"/></g>
<g><path style="opacity:1" fill="#f5f5f5" d="M 67.5,20.5 C 68.2072,25.0838 66.7072,28.7505 63,31.5C 62.3333,34.5 62.3333,37.5 63,40.5C 67.0449,50.1813 71.5449,59.5147 76.5,68.5C 76.9345,71.4584 77.9345,73.4584 79.5,74.5C 81.8966,71.691 83.2299,68.3576 83.5,64.5C 85.4187,59.2342 87.0853,53.9008 88.5,48.5C 90.1172,46.8791 91.2838,44.8791 92,42.5C 92.765,40.9343 92.5983,39.6009 91.5,38.5C 85.9696,33.624 85.1363,27.9573 89,21.5C 93.1733,17.8086 98.0066,16.6419 103.5,18C 104.381,18.7083 105.047,19.5416 105.5,20.5C 105.663,22.8568 105.497,25.1902 105,27.5C 98.5116,33.7255 96.6783,41.2255 99.5,50C 99.5687,51.9855 100.235,53.4855 101.5,54.5C 101.194,57.3854 101.527,60.0521 102.5,62.5C 102.363,69.2137 102.863,75.8804 104,82.5C 109.634,75.8643 115.634,69.531 122,63.5C 121.142,60.8488 120.642,58.0155 120.5,55C 120.937,48.5625 124.437,45.0625 131,44.5C 133.829,44.8284 136.329,45.8284 138.5,47.5C 140.03,51.3237 139.697,54.9904 137.5,58.5C 134.528,60.3056 131.695,62.3056 129,64.5C 121.453,79.0915 112.287,92.5915 101.5,105C 96.3441,109.414 90.6775,113.081 84.5,116C 76.6557,116.171 68.989,116.671 61.5,117.5C 56.8075,117.54 52.1408,117.873 47.5,118.5C 42.2415,106.31 37.2415,93.9768 32.5,81.5C 32.573,79.9731 31.9063,78.9731 30.5,78.5C 29.1738,74.8569 27.8405,71.1902 26.5,67.5C 16.644,64.4476 13.8106,58.1143 18,48.5C 22.3031,44.052 27.1365,43.3853 32.5,46.5C 33.1248,51.4542 33.2915,56.4542 33,61.5C 35.7051,65.706 39.2051,69.0394 43.5,71.5C 44.5,71.8333 45.1667,72.5 45.5,73.5C 46.5,76.5 48.5,78.5 51.5,79.5C 52.1667,80.8333 53.1667,81.8333 54.5,82.5C 55.9911,74.0496 56.6578,65.3829 56.5,56.5C 56.4995,50.6565 56.1661,44.9899 55.5,39.5C 52.3013,39.2384 50.3013,37.5717 49.5,34.5C 48.6758,31.2356 48.3424,27.9023 48.5,24.5C 53.3418,16.8956 59.6751,15.5623 67.5,20.5 Z"/></g>
<g><path style="opacity:0.278" fill="#c3c6af" d="M 72.5,19.5 C 73.9063,19.9731 74.573,20.9731 74.5,22.5C 73.0937,22.0269 72.427,21.0269 72.5,19.5 Z"/></g>
<g><path style="opacity:0.09" fill="#bcbfa9" d="M 109.5,17.5 C 113.445,20.2195 115.445,24.0528 115.5,29C 115.172,32.187 114.172,35.0203 112.5,37.5C 113.481,32.8708 113.648,28.2041 113,23.5C 111.579,21.5952 110.412,19.5952 109.5,17.5 Z"/></g>
<g><path style="opacity:1" fill="#cbcbcb" d="M 67.5,20.5 C 72.8355,26.9257 72.5021,33.259 66.5,39.5C 69.4533,49.3619 72.7866,59.0286 76.5,68.5C 71.5449,59.5147 67.0449,50.1813 63,40.5C 62.3333,37.5 62.3333,34.5 63,31.5C 66.7072,28.7505 68.2072,25.0838 67.5,20.5 Z"/></g>
<g><path style="opacity:1" fill="#cecece" d="M 105.5,20.5 C 110.7,23.9631 111.867,28.6297 109,34.5C 107.588,36.6857 105.755,38.3524 103.5,39.5C 101.558,44.0557 100.892,49.0557 101.5,54.5C 100.235,53.4855 99.5687,51.9855 99.5,50C 96.6783,41.2255 98.5116,33.7255 105,27.5C 105.497,25.1902 105.663,22.8568 105.5,20.5 Z"/></g>
<g><path style="opacity:1" fill="#ababab" d="M 48.5,24.5 C 48.3424,27.9023 48.6758,31.2356 49.5,34.5C 48.8826,34.3893 48.3826,34.056 48,33.5C 47.1955,30.3035 47.3622,27.3035 48.5,24.5 Z"/></g>
<g><path style="opacity:0.658" fill="#abad9b" d="M 86.5,18.5 C 82.9348,24.9476 82.6015,31.6143 85.5,38.5C 81.5266,33.7789 80.6932,28.4455 83,22.5C 83.66,20.6763 84.8267,19.343 86.5,18.5 Z"/></g>
<g><path style="opacity:0.661" fill="#a5a795" d="M 74.5,22.5 C 77.0089,26.8524 77.0089,31.1858 74.5,35.5C 74.5,31.1667 74.5,26.8333 74.5,22.5 Z"/></g>
<g><path style="opacity:0.388" fill="#b7b9a4" d="M 44.5,23.5 C 44.5,27.1667 44.5,30.8333 44.5,34.5C 41.8333,30.8333 41.8333,27.1667 44.5,23.5 Z"/></g>
<g><path style="opacity:0.416" fill="#b2b4a0" d="M 45.5,37.5 C 47.4516,38.7847 49.1182,40.4514 50.5,42.5C 47.856,41.8561 46.1894,40.1894 45.5,37.5 Z"/></g>
<g><path style="opacity:0.035" fill="#bfc1ab" d="M 74.5,35.5 C 73.8443,37.484 73.1776,39.484 72.5,41.5C 73.9173,45.4142 74.9173,49.4142 75.5,53.5C 73.7488,49.4784 72.0821,45.3118 70.5,41C 71.4825,38.8504 72.8158,37.0171 74.5,35.5 Z"/></g>
<g><path style="opacity:0.318" fill="#b2b4a0" d="M 40.5,48.5 C 37.9974,46.1673 35.3307,44.0007 32.5,42C 24.0261,40.0974 17.3595,42.5974 12.5,49.5C 15.0874,43.1082 19.9207,39.7749 27,39.5C 30.4271,39.9862 33.5937,41.1528 36.5,43C 38.4641,44.451 39.7974,46.2843 40.5,48.5 Z"/></g>
<g><path style="opacity:1" fill="#bdbdbd" d="M 91.5,38.5 C 92.5983,39.6009 92.765,40.9343 92,42.5C 91.2838,44.8791 90.1172,46.8791 88.5,48.5C 89.5,45.1667 90.5,41.8333 91.5,38.5 Z"/></g>
<g><path style="opacity:0.19" fill="#c0c2ab" d="M 111.5,38.5 C 110.915,40.922 109.415,42.5887 107,43.5C 106.991,52.9883 107.491,62.3216 108.5,71.5C 108.44,72.0431 108.107,72.3764 107.5,72.5C 106.282,62.521 105.782,52.521 106,42.5C 107.992,41.3353 109.825,40.002 111.5,38.5 Z"/></g>
<g><path style="opacity:0.655" fill="#a2a493" d="M 142.5,45.5 C 143.906,45.9731 144.573,46.9731 144.5,48.5C 143.094,48.0269 142.427,47.0269 142.5,45.5 Z"/></g>
<g><path style="opacity:0.459" fill="#b8baa5" d="M 85.5,38.5 C 86.6946,38.8656 87.3613,39.699 87.5,41C 85.2366,46.6946 83.4033,52.528 82,58.5C 81.6174,59.056 81.1174,59.3893 80.5,59.5C 81.5976,53.0407 83.5976,46.874 86.5,41C 85.7476,40.3292 85.4142,39.4959 85.5,38.5 Z"/></g>
<g><path style="opacity:1" fill="#cdcdcd" d="M 32.5,46.5 C 37.1206,49.5894 38.6206,53.9227 37,59.5C 36.5,60.5 36,61.5 35.5,62.5C 38.189,65.5198 40.8556,68.5198 43.5,71.5C 39.2051,69.0394 35.7051,65.706 33,61.5C 33.2915,56.4542 33.1248,51.4542 32.5,46.5 Z"/></g>
<g><path style="opacity:0.416" fill="#abad9a" d="M 40.5,48.5 C 42.0173,50.4621 42.6839,52.7954 42.5,55.5C 42.4284,57.5596 42.0951,59.5596 41.5,61.5C 42.6302,62.6223 43.2969,63.9557 43.5,65.5C 41.7538,64.7505 40.7538,63.4172 40.5,61.5C 41.6448,57.1735 41.6448,52.8401 40.5,48.5 Z"/></g>
<g><path style="opacity:1" fill="#9b9b9b" d="M 103.5,39.5 C 102.534,47.0804 102.201,54.747 102.5,62.5C 101.527,60.0521 101.194,57.3854 101.5,54.5C 100.892,49.0557 101.558,44.0557 103.5,39.5 Z"/></g>
<g><path style="opacity:1" fill="#cfcfcf" d="M 138.5,47.5 C 139.458,47.9528 140.292,48.6195 141,49.5C 143.555,58.7377 140.388,64.7377 131.5,67.5C 124.498,84.1764 117.498,100.843 110.5,117.5C 108.257,118.474 105.924,118.808 103.5,118.5C 89.6766,117.504 75.6766,117.171 61.5,117.5C 68.989,116.671 76.6557,116.171 84.5,116C 90.6775,113.081 96.3441,109.414 101.5,105C 112.287,92.5915 121.453,79.0915 129,64.5C 131.695,62.3056 134.528,60.3056 137.5,58.5C 139.697,54.9904 140.03,51.3237 138.5,47.5 Z"/></g>
<g><path style="opacity:0.518" fill="#b2b4a0" d="M 145.5,50.5 C 147.964,53.8003 147.964,57.1336 145.5,60.5C 145.5,57.1667 145.5,53.8333 145.5,50.5 Z"/></g>
<g><path style="opacity:0.608" fill="#a4a695" d="M 12.5,50.5 C 11.7756,58.0357 14.109,64.3691 19.5,69.5C 11.8287,65.1513 9.49535,58.818 12.5,50.5 Z"/></g>
<g><path style="opacity:0.478" fill="#adaf9c" d="M 142.5,45.5 C 136.638,41.4752 130.304,40.6419 123.5,43C 116.869,48.3964 114.702,55.2298 117,63.5C 114.297,66.3714 111.464,69.0381 108.5,71.5C 110.739,67.9161 113.406,64.5828 116.5,61.5C 113.556,48.7743 118.556,41.4409 131.5,39.5C 136.297,39.7264 139.964,41.7264 142.5,45.5 Z"/></g>
<g><path style="opacity:0.984" fill="#77786f" d="M 75.5,53.5 C 76.871,55.936 77.871,58.6027 78.5,61.5C 78.5,62.1667 78.5,62.8333 78.5,63.5C 77.8826,63.3893 77.3826,63.056 77,62.5C 76.304,59.5219 75.804,56.5219 75.5,53.5 Z"/></g>
<g><path style="opacity:0.145" fill="#c8cab2" d="M 80.5,59.5 C 80.7709,61.3797 80.1042,62.713 78.5,63.5C 78.5,62.8333 78.5,62.1667 78.5,61.5C 79.1667,60.8333 79.8333,60.1667 80.5,59.5 Z"/></g>
<g><path style="opacity:0.114" fill="#b4b6a2" d="M 144.5,63.5 C 142.402,67.8808 139.069,70.8808 134.5,72.5C 134.5,71.5 134.5,70.5 134.5,69.5C 136.308,69.5086 137.975,69.0086 139.5,68C 141.037,66.2927 142.704,64.7927 144.5,63.5 Z"/></g>
<g><path style="opacity:0.21" fill="#c5c7b0" d="M 50.5,42.5 C 51.7647,43.5145 52.4313,45.0145 52.5,47C 51.9757,55.5099 51.309,64.0099 50.5,72.5C 47.7341,70.7407 45.7341,68.4073 44.5,65.5C 46.4628,66.9599 48.2962,68.6266 50,70.5C 50.2841,62.6494 50.7841,54.8161 51.5,47C 51.3948,45.4085 51.0614,43.9085 50.5,42.5 Z"/></g>
<g><path style="opacity:1" fill="#c9c9c9" d="M 55.5,39.5 C 56.1661,44.9899 56.4995,50.6565 56.5,56.5C 56.6578,65.3829 55.9911,74.0496 54.5,82.5C 55.2107,68.1778 55.544,53.8445 55.5,39.5 Z"/></g>
<g><path style="opacity:1" fill="#c0c0c0" d="M 83.5,64.5 C 83.2299,68.3576 81.8966,71.691 79.5,74.5C 80.2667,70.8512 81.6001,67.5178 83.5,64.5 Z"/></g>
<g><path style="opacity:1" fill="#b0b0b0" d="M 45.5,73.5 C 47.8333,75.1667 49.8333,77.1667 51.5,79.5C 48.5,78.5 46.5,76.5 45.5,73.5 Z"/></g>
<g><path style="opacity:0.196" fill="#b7b9a5" d="M 133.5,74.5 C 132.458,79.6422 130.458,84.3089 127.5,88.5C 128.94,83.488 130.94,78.8213 133.5,74.5 Z"/></g>
<g><path style="opacity:1" fill="#9f9f9f" d="M 30.5,78.5 C 31.9063,78.9731 32.573,79.9731 32.5,81.5C 31.0937,81.0269 30.427,80.0269 30.5,78.5 Z"/></g>
<g><path style="opacity:0.545" fill="#a9aa98" d="M 19.5,69.5 C 21.1439,69.2865 22.6439,69.6198 24,70.5C 28.4142,79.4898 31.9142,88.8231 34.5,98.5C 30.5234,89.6015 26.5234,80.6015 22.5,71.5C 21.3984,70.8243 20.3984,70.1577 19.5,69.5 Z"/></g>
<g><path style="opacity:0.557" fill="#a7a897" d="M 127.5,88.5 C 127.267,91.5418 126.267,94.2084 124.5,96.5C 124.345,93.284 125.345,90.6174 127.5,88.5 Z"/></g>
<g><path style="opacity:0.161" fill="#c3c5ae" d="M 34.5,98.5 C 35.6737,99.5137 36.3404,100.847 36.5,102.5C 34.8958,101.713 34.2291,100.38 34.5,98.5 Z"/></g>
<g><path style="opacity:0.149" fill="#c0c2ac" d="M 124.5,96.5 C 123.958,99.9122 122.625,102.912 120.5,105.5C 121.059,102.057 122.393,99.0567 124.5,96.5 Z"/></g>
<g><path style="opacity:0.557" fill="#9e9f8f" d="M 120.5,105.5 C 120.204,107.403 119.537,109.07 118.5,110.5C 118.12,108.302 118.787,106.635 120.5,105.5 Z"/></g>
<g><path style="opacity:0.306" fill="#bbbda7" d="M 37.5,105.5 C 38.9313,106.78 39.5979,108.447 39.5,110.5C 38.0687,109.22 37.4021,107.553 37.5,105.5 Z"/></g>
<g><path style="opacity:0.494" fill="#a9ab99" d="M 118.5,110.5 C 118.598,112.553 117.931,114.22 116.5,115.5C 116.12,113.302 116.787,111.635 118.5,110.5 Z"/></g>
<g><path style="opacity:0.357" fill="#adaf9c" d="M 39.5,110.5 C 41.3837,112.769 42.717,115.436 43.5,118.5C 41.8885,120.941 39.5552,122.274 36.5,122.5C 37.9746,120.59 39.9746,119.424 42.5,119C 41.0708,116.31 40.0708,113.477 39.5,110.5 Z"/></g>
<g><path style="opacity:1" fill="#707070" d="M 61.5,117.5 C 75.6766,117.171 89.6766,117.504 103.5,118.5C 84.6472,118.636 65.9805,118.636 47.5,118.5C 52.1408,117.873 56.8075,117.54 61.5,117.5 Z"/></g>
<g><path style="opacity:0.333" fill="#b6b8a4" d="M 116.5,115.5 C 116.67,116.822 116.337,117.989 115.5,119C 118.684,119.754 121.351,121.254 123.5,123.5C 120.854,122.513 118.188,121.513 115.5,120.5C 114.106,118.418 114.439,116.751 116.5,115.5 Z"/></g>
<g><path style="opacity:1" fill="#828282" d="M 94.5,121.5 C 80.4823,121.324 66.4823,121.657 52.5,122.5C 60.2684,120.942 68.2684,120.276 76.5,120.5C 82.6762,120.5 88.6762,120.834 94.5,121.5 Z"/></g>
<g><path style="opacity:0.529" fill="#afb19d" d="M 36.5,122.5 C 33.7255,125.26 31.3922,128.26 29.5,131.5C 29.9892,127.016 32.3226,124.016 36.5,122.5 Z"/></g>
<g><path style="opacity:0.651" fill="#b0b29f" d="M 123.5,123.5 C 125.587,124.585 126.92,126.251 127.5,128.5C 125.413,127.415 124.08,125.749 123.5,123.5 Z"/></g>
<g><path style="opacity:1" fill="#f6f6f6" d="M 94.5,121.5 C 101.172,122.183 107.839,123.016 114.5,124C 118.24,125.198 121.24,127.365 123.5,130.5C 124.254,135.463 124.587,140.463 124.5,145.5C 94.1667,145.5 63.8333,145.5 33.5,145.5C 30.7766,130.231 37.1099,122.564 52.5,122.5C 66.4823,121.657 80.4823,121.324 94.5,121.5 Z"/></g>
<g><path style="opacity:1" fill="#969696" d="M 123.5,130.5 C 124.222,130.918 124.722,131.584 125,132.5C 125.814,137.02 125.647,141.354 124.5,145.5C 124.587,140.463 124.254,135.463 123.5,130.5 Z"/></g>
<g><path style="opacity:0.101" fill="#c8cab2" d="M 29.5,133.5 C 29.5,138.833 29.5,144.167 29.5,149.5C 62.5,149.5 95.5,149.5 128.5,149.5C 128.5,144.167 128.5,138.833 128.5,133.5C 129.489,138.975 129.822,144.642 129.5,150.5C 95.8333,150.5 62.1667,150.5 28.5,150.5C 28.1778,144.642 28.5111,138.975 29.5,133.5 Z"/></g>
</svg>
