<?xml version="1.0" encoding="UTF-8"?>
<!DOCTYPE svg PUBLIC "-//W3C//DTD SVG 1.1//EN" "http://www.w3.org/Graphics/SVG/1.1/DTD/svg11.dtd">
<svg xmlns="http://www.w3.org/2000/svg" version="1.1" width="164px" height="162px" style="shape-rendering:geometricPrecision; text-rendering:geometricPrecision; image-rendering:optimizeQuality; fill-rule:evenodd; clip-rule:evenodd" xmlns:xlink="http://www.w3.org/1999/xlink">
<g><path style="opacity:0.549" fill="#a9ab99" d="M 71.5,25.5 C 71.5,25.8333 71.5,26.1667 71.5,26.5C 70.5,26.5 69.5,26.5 68.5,26.5C 68.0242,30.9935 67.3576,35.3268 66.5,39.5C 66.3531,34.7858 66.6864,30.1191 67.5,25.5C 68.8333,25.5 70.1667,25.5 71.5,25.5 Z"/></g>
<g><path style="opacity:0.903" fill="#88897c" d="M 90.5,25.5 C 90.5,25.8333 90.5,26.1667 90.5,26.5C 84.1667,26.5 77.8333,26.5 71.5,26.5C 71.5,26.1667 71.5,25.8333 71.5,25.5C 77.8201,24.2124 84.1534,24.2124 90.5,25.5 Z"/></g>
<g><path style="opacity:1" fill="#555654" d="M 71.5,26.5 C 77.8333,26.5 84.1667,26.5 90.5,26.5C 91.7479,27.3339 92.4146,28.6672 92.5,30.5C 93.201,34.8079 93.5343,39.1412 93.5,43.5C 95.7354,43.7947 97.7354,43.4614 99.5,42.5C 101.568,39.237 102.568,35.5704 102.5,31.5C 102.5,30.5 102.5,29.5 102.5,28.5C 109.42,28.684 116.087,30.0174 122.5,32.5C 122.5,35.8333 122.5,39.1667 122.5,42.5C 122.676,47.8797 122.342,53.213 121.5,58.5C 119.244,62.0974 116.577,65.4307 113.5,68.5C 112.5,68.5 111.5,68.5 110.5,68.5C 110.216,70.4147 110.549,72.0813 111.5,73.5C 112.899,85.1552 114.232,96.8219 115.5,108.5C 115.22,113.314 115.886,117.98 117.5,122.5C 119.739,123.788 122.072,124.788 124.5,125.5C 125.167,125.5 125.5,125.833 125.5,126.5C 127.529,129.547 128.863,132.88 129.5,136.5C 129.5,141.167 129.5,145.833 129.5,150.5C 96.8333,150.5 64.1667,150.5 31.5,150.5C 31.5,144.5 31.5,138.5 31.5,132.5C 31.5,132.167 31.5,131.833 31.5,131.5C 33.6326,129.909 35.2993,127.909 36.5,125.5C 38.9278,123.957 41.5944,122.957 44.5,122.5C 45.3864,115.189 46.053,107.856 46.5,100.5C 47.2377,91.7869 48.2377,83.1203 49.5,74.5C 50.6129,73.0536 50.7796,71.3869 50,69.5C 49.3292,68.7476 48.4959,68.4142 47.5,68.5C 44.4229,65.4307 41.7563,62.0974 39.5,58.5C 38.6576,53.213 38.3243,47.8797 38.5,42.5C 38.1868,38.5874 38.8534,34.9207 40.5,31.5C 45.9745,29.2843 51.6412,28.451 57.5,29C 58.4676,33.716 59.8009,38.216 61.5,42.5C 62.9187,43.4511 64.5853,43.7845 66.5,43.5C 66.5,42.1667 66.5,40.8333 66.5,39.5C 67.3576,35.3268 68.0242,30.9935 68.5,26.5C 69.5,26.5 70.5,26.5 71.5,26.5 Z"/></g>
<g><path style="opacity:0.347" fill="#b0b29f" d="M 61.5,42.5 C 59.8009,38.216 58.4676,33.716 57.5,29C 51.6412,28.451 45.9745,29.2843 40.5,31.5C 42.667,29.4887 45.3337,28.3221 48.5,28C 51.8333,27.3333 55.1667,27.3333 58.5,28C 60.1999,32.6654 61.1999,37.4987 61.5,42.5 Z"/></g>
<g><path style="opacity:1" fill="#f6f6f6" d="M 90.5,36.5 C 90.5,40.1667 90.5,43.8333 90.5,47.5C 94.8333,47.5 99.1667,47.5 103.5,47.5C 103.448,45.0971 103.781,42.7638 104.5,40.5C 104.325,38.3792 104.659,36.3792 105.5,34.5C 112.59,31.7549 115.09,34.0882 113,41.5C 111.569,47.6946 109.569,53.6946 107,59.5C 104.937,61.7341 102.771,63.7341 100.5,65.5C 99.8333,65.5 99.1667,65.5 98.5,65.5C 97.3915,64.71 96.0581,64.21 94.5,64C 80.0992,63.0645 65.7658,63.5645 51.5,65.5C 46.9519,63.6237 44.2853,60.2904 43.5,55.5C 43.0757,48.4089 43.0757,41.4089 43.5,34.5C 47.5591,33.4357 51.5591,33.4357 55.5,34.5C 55.5,34.8333 55.5,35.1667 55.5,35.5C 56.5515,39.426 57.2182,43.426 57.5,47.5C 61.8333,47.5 66.1667,47.5 70.5,47.5C 70.9157,42.5068 71.2491,37.5068 71.5,32.5C 71.5,31.5 71.5,30.5 71.5,29.5C 77.1764,29.3339 82.8431,29.5006 88.5,30C 89.2301,32.154 89.8968,34.3206 90.5,36.5 Z"/></g>
<g><path style="opacity:0.318" fill="#c0c3ac" d="M 122.5,32.5 C 116.087,30.0174 109.42,28.684 102.5,28.5C 102.5,29.5 102.5,30.5 102.5,31.5C 102.167,31.5 101.833,31.5 101.5,31.5C 101.5,30.1667 101.5,28.8333 101.5,27.5C 105.514,27.3345 109.514,27.5012 113.5,28C 117.035,28.6633 120.035,30.1633 122.5,32.5 Z"/></g>
<g><path style="opacity:1" fill="#c5c5c5" d="M 55.5,34.5 C 51.5591,33.4357 47.5591,33.4357 43.5,34.5C 45.6789,33.0744 48.1789,32.4078 51,32.5C 52.9855,32.5687 54.4855,33.2353 55.5,34.5 Z"/></g>
<g><path style="opacity:1" fill="#d0d0d0" d="M 115.5,33.5 C 117.315,34.7908 118.315,36.6241 118.5,39C 117.736,43.4698 117.403,47.9698 117.5,52.5C 116.67,63.3431 111.003,67.6765 100.5,65.5C 102.771,63.7341 104.937,61.7341 107,59.5C 109.569,53.6946 111.569,47.6946 113,41.5C 115.09,34.0882 112.59,31.7549 105.5,34.5C 106.334,33.2521 107.667,32.5854 109.5,32.5C 111.548,32.6718 113.548,33.0051 115.5,33.5 Z"/></g>
<g><path style="opacity:0.51" fill="#9d9f8f" d="M 40.5,31.5 C 38.8534,34.9207 38.1868,38.5874 38.5,42.5C 37.3592,39.3601 37.1925,36.0267 38,32.5C 38.6708,31.7476 39.5041,31.4142 40.5,31.5 Z"/></g>
<g><path style="opacity:0.506" fill="#b4b6a2" d="M 122.5,32.5 C 123.88,32.9623 124.547,33.9623 124.5,35.5C 124.071,38.0288 123.404,40.3621 122.5,42.5C 122.5,39.1667 122.5,35.8333 122.5,32.5 Z"/></g>
<g><path style="opacity:0.537" fill="#a3a594" d="M 90.5,26.5 C 90.5,26.1667 90.5,25.8333 90.5,25.5C 91.5,25.5 92.5,25.5 93.5,25.5C 94.1667,31.1667 94.8333,36.8333 95.5,42.5C 96.8333,42.5 98.1667,42.5 99.5,42.5C 97.7354,43.4614 95.7354,43.7947 93.5,43.5C 93.5343,39.1412 93.201,34.8079 92.5,30.5C 92.4146,28.6672 91.7479,27.3339 90.5,26.5 Z"/></g>
<g><path style="opacity:1" fill="#989898" d="M 43.5,34.5 C 43.0757,41.4089 43.0757,48.4089 43.5,55.5C 42.4816,50.5248 41.8149,45.3582 41.5,40C 41.5465,37.7047 42.2132,35.8714 43.5,34.5 Z"/></g>
<g><path style="opacity:0.941" fill="#8d8e81" d="M 101.5,31.5 C 101.833,31.5 102.167,31.5 102.5,31.5C 102.568,35.5704 101.568,39.237 99.5,42.5C 99.6587,38.7091 100.325,35.0424 101.5,31.5 Z"/></g>
<g><path style="opacity:1" fill="#7d7d7d" d="M 115.5,33.5 C 116.583,33.5394 117.583,33.8728 118.5,34.5C 119.89,40.7258 119.557,46.7258 117.5,52.5C 117.403,47.9698 117.736,43.4698 118.5,39C 118.315,36.6241 117.315,34.7908 115.5,33.5 Z"/></g>
<g><path style="opacity:1" fill="#777777" d="M 71.5,32.5 C 71.2491,37.5068 70.9157,42.5068 70.5,47.5C 66.1667,47.5 61.8333,47.5 57.5,47.5C 57.2182,43.426 56.5515,39.426 55.5,35.5C 56.6935,35.9704 57.3601,36.9704 57.5,38.5C 58.0951,41.1401 58.4285,43.8067 58.5,46.5C 62.1667,46.5 65.8333,46.5 69.5,46.5C 69.1228,41.5474 69.7895,36.8807 71.5,32.5 Z"/></g>
<g><path style="opacity:0.158" fill="#c5c7b0" d="M 66.5,39.5 C 66.5,40.8333 66.5,42.1667 66.5,43.5C 64.5853,43.7845 62.9187,43.4511 61.5,42.5C 62.8333,42.5 64.1667,42.5 65.5,42.5C 65.2627,41.209 65.596,40.209 66.5,39.5 Z"/></g>
<g><path style="opacity:1" fill="#727272" d="M 90.5,36.5 C 91.4794,39.6248 91.8128,42.9581 91.5,46.5C 95.1667,46.5 98.8333,46.5 102.5,46.5C 102.054,43.9899 102.72,41.9899 104.5,40.5C 103.781,42.7638 103.448,45.0971 103.5,47.5C 99.1667,47.5 94.8333,47.5 90.5,47.5C 90.5,43.8333 90.5,40.1667 90.5,36.5 Z"/></g>
<g><path style="opacity:0.467" fill="#b5b7a2" d="M 39.5,58.5 C 41.7563,62.0974 44.4229,65.4307 47.5,68.5C 43.027,66.6859 40.3603,63.3526 39.5,58.5 Z"/></g>
<g><path style="opacity:1" fill="#d6d6d6" d="M 98.5,65.5 C 82.6393,64.4279 66.9726,64.4279 51.5,65.5C 65.7658,63.5645 80.0992,63.0645 94.5,64C 96.0581,64.21 97.3915,64.71 98.5,65.5 Z"/></g>
<g><path style="opacity:0.137" fill="#bbbda7" d="M 121.5,58.5 C 120.64,63.3526 117.973,66.6859 113.5,68.5C 116.577,65.4307 119.244,62.0974 121.5,58.5 Z"/></g>
<g><path style="opacity:1" fill="#8b8b8b" d="M 66.5,68.5 C 70.4861,67.8343 74.6528,67.501 79,67.5C 85.4062,67.3262 91.5728,67.9929 97.5,69.5C 87.1851,68.7327 76.8518,68.3994 66.5,68.5 Z"/></g>
<g><path style="opacity:0.369" fill="#b7b9a5" d="M 47.5,68.5 C 48.4959,68.4142 49.3292,68.7476 50,69.5C 50.7796,71.3869 50.6129,73.0536 49.5,74.5C 49.7475,72.1417 49.0808,70.1417 47.5,68.5 Z"/></g>
<g><path style="opacity:1" fill="#f6f6f6" d="M 101.5,119.5 C 86.8333,119.5 72.1667,119.5 57.5,119.5C 54.8333,119.5 52.1667,119.5 49.5,119.5C 50.2919,113.87 50.6252,108.203 50.5,102.5C 51.2436,98.8815 51.577,95.2148 51.5,91.5C 52.5249,88.0264 53.1916,84.3597 53.5,80.5C 53.6159,77.1401 53.9492,73.8067 54.5,70.5C 66.569,67.9348 77.7357,69.9348 88,76.5C 91.0358,80.3189 93.7025,84.3189 96,88.5C 98.9586,98.6603 100.792,108.994 101.5,119.5 Z"/></g>
<g><path style="opacity:1" fill="#d0d0d0" d="M 66.5,68.5 C 76.8518,68.3994 87.1851,68.7327 97.5,69.5C 100.5,69.5 103.5,69.5 106.5,69.5C 107.114,73.1352 107.448,76.8019 107.5,80.5C 107.96,88.7046 108.96,96.7046 110.5,104.5C 111.473,106.948 111.806,109.615 111.5,112.5C 111.5,115.167 111.5,117.833 111.5,120.5C 108.167,120.167 104.833,119.833 101.5,119.5C 100.792,108.994 98.9586,98.6603 96,88.5C 93.7025,84.3189 91.0358,80.3189 88,76.5C 77.7357,69.9348 66.569,67.9348 54.5,70.5C 58.1829,68.7501 62.1829,68.0834 66.5,68.5 Z"/></g>
<g><path style="opacity:0.282" fill="#b6b9a4" d="M 113.5,68.5 C 112.058,69.8195 111.392,71.4862 111.5,73.5C 110.549,72.0813 110.216,70.4147 110.5,68.5C 111.5,68.5 112.5,68.5 113.5,68.5 Z"/></g>
<g><path style="opacity:1" fill="#777777" d="M 53.5,80.5 C 53.1916,84.3597 52.5249,88.0264 51.5,91.5C 51.3354,88.4816 51.502,85.4816 52,82.5C 52.2784,81.5842 52.7784,80.9175 53.5,80.5 Z"/></g>
<g><path style="opacity:1" fill="#929292" d="M 107.5,80.5 C 109.602,88.2279 110.602,96.2279 110.5,104.5C 108.96,96.7046 107.96,88.7046 107.5,80.5 Z"/></g>
<g><path style="opacity:0.098" fill="#c4c6af" d="M 115.5,108.5 C 116.254,112.76 117.254,117.094 118.5,121.5C 120.911,122.361 122.911,123.694 124.5,125.5C 122.072,124.788 119.739,123.788 117.5,122.5C 115.886,117.98 115.22,113.314 115.5,108.5 Z"/></g>
<g><path style="opacity:1" fill="#aeaeae" d="M 50.5,102.5 C 50.6252,108.203 50.2919,113.87 49.5,119.5C 52.1667,119.5 54.8333,119.5 57.5,119.5C 57.5,119.833 57.5,120.167 57.5,120.5C 54.5701,121.299 51.5701,121.632 48.5,121.5C 48.3369,114.938 49.0035,108.605 50.5,102.5 Z"/></g>
<g><path style="opacity:1" fill="#7e7e7e" d="M 111.5,112.5 C 112.477,115.287 112.81,118.287 112.5,121.5C 94.1819,120.631 75.8485,120.297 57.5,120.5C 57.5,120.167 57.5,119.833 57.5,119.5C 72.1667,119.5 86.8333,119.5 101.5,119.5C 104.833,119.833 108.167,120.167 111.5,120.5C 111.5,117.833 111.5,115.167 111.5,112.5 Z"/></g>
<g><path style="opacity:0.129" fill="#c8cab2" d="M 46.5,100.5 C 46.053,107.856 45.3864,115.189 44.5,122.5C 41.5944,122.957 38.9278,123.957 36.5,125.5C 38.0522,122.888 40.3855,121.555 43.5,121.5C 44.0001,114.294 45.0001,107.294 46.5,100.5 Z"/></g>
<g><path style="opacity:0.306" fill="#bec0aa" d="M 36.5,125.5 C 35.2993,127.909 33.6326,129.909 31.5,131.5C 32.2471,128.638 33.9138,126.638 36.5,125.5 Z"/></g>
<g><path style="opacity:1" fill="#f8f8f8" d="M 125.5,134.5 C 125.5,138.5 125.5,142.5 125.5,146.5C 95.5,146.5 65.5,146.5 35.5,146.5C 35.5,143.167 35.5,139.833 35.5,136.5C 35.5887,133.061 36.9221,130.228 39.5,128C 44.5553,125.654 49.8887,124.321 55.5,124C 74.2009,123.096 92.8676,123.429 111.5,125C 118.215,125.224 122.881,128.391 125.5,134.5 Z"/></g>
<g><path style="opacity:0.992" fill="#a0a191" d="M 125.5,126.5 C 129.04,128.725 130.706,132.058 130.5,136.5C 130.167,136.5 129.833,136.5 129.5,136.5C 128.863,132.88 127.529,129.547 125.5,126.5 Z"/></g>
<g><path style="opacity:1" fill="#cfcfcf" d="M 125.5,134.5 C 126.485,138.634 126.818,142.968 126.5,147.5C 95.8333,147.5 65.1667,147.5 34.5,147.5C 34.185,143.629 34.5184,139.962 35.5,136.5C 35.5,139.833 35.5,143.167 35.5,146.5C 65.5,146.5 95.5,146.5 125.5,146.5C 125.5,142.5 125.5,138.5 125.5,134.5 Z"/></g>
<g><path style="opacity:0.876" fill="#7d7f74" d="M 31.5,132.5 C 31.5,138.5 31.5,144.5 31.5,150.5C 64.1667,150.5 96.8333,150.5 129.5,150.5C 129.5,145.833 129.5,141.167 129.5,136.5C 129.833,136.5 130.167,136.5 130.5,136.5C 130.5,141.833 130.5,147.167 130.5,152.5C 97.1667,152.5 63.8333,152.5 30.5,152.5C 30.176,145.646 30.5093,138.979 31.5,132.5 Z"/></g>
</svg>
